<?xml version="1.0" encoding="utf-8"?>
<svg contentScriptType="text/ecmascript" xmlns:xlink="http://www.w3.org/1999/xlink" zoomAndPan="magnify" contentStyleType="text/css" viewBox="241.0 41.0 1430.666666666666 778.9000000000001" xmlns:cacoo="http://cacoo.com/" preserveAspectRatio="xMidYMin meet" xmlns="http://www.w3.org/2000/svg" version="1.1"><defs><linearGradient x1="0%" xmlns:xlink="http://www.w3.org/1999/xlink" y1="0%" x2="0%" y2="100%" xlink:type="simple" xlink:actuate="onLoad" id="id12" xlink:show="other"><stop stop-opacity="1.0" stop-color="#d3d4dd" offset="0%"/><stop stop-opacity="1.0" stop-color="#ffffff" offset="100%"/></linearGradient><linearGradient x1="0%" xmlns:xlink="http://www.w3.org/1999/xlink" y1="0%" x2="0%" y2="100%" xlink:type="simple" xlink:actuate="onLoad" id="id13" xlink:show="other"><stop stop-opacity="1.0" stop-color="#d3d4dd" offset="0%"/><stop stop-opacity="1.0" stop-color="#ffffff" offset="100%"/></linearGradient><linearGradient x1="0%" xmlns:xlink="http://www.w3.org/1999/xlink" y1="0%" x2="0%" y2="100%" xlink:type="simple" xlink:actuate="onLoad" id="id14" xlink:show="other"><stop stop-opacity="1.0" stop-color="#d3d4dd" offset="0%"/><stop stop-opacity="1.0" stop-color="#ffffff" offset="100%"/></linearGradient><linearGradient x1="0%" xmlns:xlink="http://www.w3.org/1999/xlink" y1="0%" x2="0%" y2="100%" xlink:type="simple" xlink:actuate="onLoad" id="id15" xlink:show="other"><stop stop-opacity="1.0" stop-color="#d3d4dd" offset="0%"/><stop stop-opacity="1.0" stop-color="#ffffff" offset="100%"/></linearGradient><linearGradient x1="0%" xmlns:xlink="http://www.w3.org/1999/xlink" y1="0%" x2="0%" y2="100%" xlink:type="simple" xlink:actuate="onLoad" id="id16" xlink:show="other"><stop stop-opacity="1.0" stop-color="#d3d4dd" offset="0%"/><stop stop-opacity="1.0" stop-color="#ffffff" offset="100%"/></linearGradient><linearGradient x1="0%" xmlns:xlink="http://www.w3.org/1999/xlink" y1="0%" x2="0%" y2="100%" xlink:type="simple" xlink:actuate="onLoad" id="id17" xlink:show="other"><stop stop-opacity="1.0" stop-color="#d3d4dd" offset="0%"/><stop stop-opacity="1.0" stop-color="#ffffff" offset="100%"/></linearGradient><linearGradient x1="0%" xmlns:xlink="http://www.w3.org/1999/xlink" y1="0%" x2="0%" y2="100%" xlink:type="simple" xlink:actuate="onLoad" id="id18" xlink:show="other"><stop stop-opacity="1.0" stop-color="#d3d4dd" offset="0%"/><stop stop-opacity="1.0" stop-color="#ffffff" offset="100%"/></linearGradient><linearGradient x1="0%" xmlns:xlink="http://www.w3.org/1999/xlink" y1="0%" x2="0%" y2="100%" xlink:type="simple" xlink:actuate="onLoad" id="id19" xlink:show="other"><stop stop-opacity="1.0" stop-color="#d3d4dd" offset="0%"/><stop stop-opacity="1.0" stop-color="#ffffff" offset="100%"/></linearGradient><marker refX="14.0" refY="7.0" markerUnits="userSpaceOnUse" orient="auto" id="id23" markerHeight="14.0" viewBox="0 0 14.0 14.0" preserveAspectRatio="xMidYMid meet" markerWidth="14.0" overflow="visible"><path fill="#000000" d="M7.0 3.5 L14.0 7.0 L7.0 10.5z" stroke-width="1.0" stroke-linejoin="round" stroke-linecap="round" stroke="#000000"/></marker><marker refX="14.0" refY="7.0" markerUnits="userSpaceOnUse" orient="auto" id="id28" markerHeight="14.0" viewBox="0 0 14.0 14.0" preserveAspectRatio="xMidYMid meet" markerWidth="14.0" overflow="visible"><path fill="#000000" d="M7.0 3.5 L14.0 7.0 L7.0 10.5z" stroke-width="1.0" stroke-linejoin="round" stroke-linecap="round" stroke="#000000"/></marker><marker refX="14.0" refY="7.0" markerUnits="userSpaceOnUse" orient="auto" id="id29" markerHeight="14.0" viewBox="0 0 14.0 14.0" preserveAspectRatio="xMidYMid meet" markerWidth="14.0" overflow="visible"><path fill="#000000" d="M7.0 3.5 L14.0 7.0 L7.0 10.5z" stroke-width="1.0" stroke-linejoin="round" stroke-linecap="round" stroke="#000000"/></marker><marker refX="14.0" refY="7.0" markerUnits="userSpaceOnUse" orient="auto" id="id32" markerHeight="14.0" viewBox="0 0 14.0 14.0" preserveAspectRatio="xMidYMid meet" markerWidth="14.0" overflow="visible"><path fill="#000000" d="M7.0 3.5 L14.0 7.0 L7.0 10.5z" stroke-width="1.0" stroke-linejoin="round" stroke-linecap="round" stroke="#000000"/></marker><marker refX="14.0" refY="7.0" markerUnits="userSpaceOnUse" orient="auto" id="id33" markerHeight="14.0" viewBox="0 0 14.0 14.0" preserveAspectRatio="xMidYMid meet" markerWidth="14.0" overflow="visible"><path fill="#000000" d="M7.0 3.5 L14.0 7.0 L7.0 10.5z" stroke-width="1.0" stroke-linejoin="round" stroke-linecap="round" stroke="#000000"/></marker><marker refX="14.0" refY="7.0" markerUnits="userSpaceOnUse" orient="auto" id="id36" markerHeight="14.0" viewBox="0 0 14.0 14.0" preserveAspectRatio="xMidYMid meet" markerWidth="14.0" overflow="visible"><path fill="#000000" d="M7.0 3.5 L14.0 7.0 L7.0 10.5z" stroke-width="1.0" stroke-linejoin="round" stroke-linecap="round" stroke="#000000"/></marker><marker refX="14.0" refY="7.0" markerUnits="userSpaceOnUse" orient="auto" id="id39" markerHeight="14.0" viewBox="0 0 14.0 14.0" preserveAspectRatio="xMidYMid meet" markerWidth="14.0" overflow="visible"><path fill="#000000" d="M7.0 3.5 L14.0 7.0 L7.0 10.5z" stroke-width="1.0" stroke-linejoin="round" stroke-linecap="round" stroke="#000000"/></marker><marker refX="14.0" refY="7.0" markerUnits="userSpaceOnUse" orient="auto" id="id42" markerHeight="14.0" viewBox="0 0 14.0 14.0" preserveAspectRatio="xMidYMid meet" markerWidth="14.0" overflow="visible"><path fill="#000000" d="M7.0 3.5 L14.0 7.0 L7.0 10.5z" stroke-width="1.0" stroke-linejoin="round" stroke-linecap="round" stroke="#000000"/></marker><marker refX="14.0" refY="7.0" markerUnits="userSpaceOnUse" orient="auto" id="id44" markerHeight="14.0" viewBox="0 0 14.0 14.0" preserveAspectRatio="xMidYMid meet" markerWidth="14.0" overflow="visible"><path fill="#000000" d="M7.0 3.5 L14.0 7.0 L7.0 10.5z" stroke-width="1.0" stroke-linejoin="round" stroke-linecap="round" stroke="#000000"/></marker><marker refX="14.0" refY="7.0" markerUnits="userSpaceOnUse" orient="auto" id="id47" markerHeight="14.0" viewBox="0 0 14.0 14.0" preserveAspectRatio="xMidYMid meet" markerWidth="14.0" overflow="visible"><path fill="#000000" d="M7.0 3.5 L14.0 7.0 L7.0 10.5z" stroke-width="1.0" stroke-linejoin="round" stroke-linecap="round" stroke="#000000"/></marker><marker refX="14.0" refY="7.0" markerUnits="userSpaceOnUse" orient="auto" id="id49" markerHeight="14.0" viewBox="0 0 14.0 14.0" preserveAspectRatio="xMidYMid meet" markerWidth="14.0" overflow="visible"><path fill="#000000" d="M7.0 3.5 L14.0 7.0 L7.0 10.5z" stroke-width="1.0" stroke-linejoin="round" stroke-linecap="round" stroke="#000000"/></marker><marker refX="14.0" refY="7.0" markerUnits="userSpaceOnUse" orient="auto" id="id50" markerHeight="14.0" viewBox="0 0 14.0 14.0" preserveAspectRatio="xMidYMid meet" markerWidth="14.0" overflow="visible"><path fill="#000000" d="M7.0 3.5 L14.0 7.0 L7.0 10.5z" stroke-width="1.0" stroke-linejoin="round" stroke-linecap="round" stroke="#000000"/></marker><linearGradient xlink:actuate="onLoad" xlink:type="simple" id="id52" xlink:show="other" xmlns:xlink="http://www.w3.org/1999/xlink"><stop stop-opacity="1.0" stop-color="#ffffff" offset="0%"/><stop stop-opacity="1.0" stop-color="#cccccc" offset="100%"/></linearGradient><linearGradient xlink:actuate="onLoad" xlink:type="simple" id="id53" xlink:show="other" xmlns:xlink="http://www.w3.org/1999/xlink"><stop stop-opacity="1.0" stop-color="#ffffff" offset="0%"/><stop stop-opacity="1.0" stop-color="#cccccc" offset="100%"/></linearGradient></defs><g><g transform="translate(259.875 246.0)"><path fill="#ffffff" fill-opacity="1.0" d="M665.2500000000001 119.0 L0.0 119.0 L0.0 6.0 L665.2500000000001 6.0 L665.2500000000001 119.0z" stroke-width="1.0" stroke-linejoin="round" stroke="#000000"/><g transform="translate(1.0 1.0)"><clipPath id="id0"><path d="M0 0 L663.2500000000001 0 L663.2500000000001 117.0 L0 117.0z"/></clipPath><text font-size="12" clip-path="url(#id0)" text-decoration="none" fill="#000000" font-family="Arial,Arial" font-style="normal" font-weight="normal"><tspan x="295.0" xml:space="preserve" y="62.75" textLength="73.0">SCHEDULER</tspan></text></g></g><g transform="translate(365.0 56.0)"><path fill="#ffffff" fill-opacity="1.0" d="M455.0000000000002 44.0 L0.0 44.0 L0.0 0.0 L455.0000000000002 0.0 L455.0000000000002 44.0z" stroke-width="1.0" stroke-linejoin="round" stroke="#000000"/><g transform="translate(1.0 1.0)"><clipPath id="id1"><path d="M0 0 L453.0 0 L453.0 42.0 L0 42.0z"/></clipPath><text font-size="12" clip-path="url(#id1)" text-decoration="none" fill="#000000" font-family="Arial,Arial" font-style="normal" font-weight="normal"><tspan x="191.5" xml:space="preserve" y="25.25" textLength="70.0">FRONT END</tspan></text></g></g><g transform="translate(367.5 278.0)"><path fill="#ffffff" fill-opacity="1.0" d="M5.0 0.0 L50.0 0.0 L45.0 5.0 L0.0 5.0 L5.0 0.0z" stroke-width="1.0" stroke-linejoin="round" stroke="#000000"/><path fill="#ffffff" fill-opacity="1.0" d="M45.0 5.0 L50.0 0.0 L50.0 45.0 L45.0 50.0 L45.0 5.0z" stroke-width="1.0" stroke-linejoin="round" stroke="#000000"/><path fill="#ffffff" fill-opacity="1.0" d="M0.0 5.0 L45.0 5.0 L45.0 50.0 L0.0 50.0 L0.0 5.0z" stroke-width="1.0" stroke-linejoin="round" stroke="#000000"/><g transform="translate(0.0 5.0)"><clipPath id="id2"><path d="M0 0 L45.0 0 L45.0 45.0 L0 45.0z"/></clipPath><text font-size="12" clip-path="url(#id2)" text-decoration="none" fill="#000000" font-family="Arial,Arial" font-style="normal" font-weight="normal"><tspan x="10.5" xml:space="preserve" y="26.75" textLength="23.5">JOB</tspan></text></g></g><g transform="translate(417.5 278.0)"><path fill="#ffffff" fill-opacity="1.0" d="M5.0 0.0 L50.0 0.0 L45.0 5.0 L0.0 5.0 L5.0 0.0z" stroke-width="1.0" stroke-linejoin="round" stroke="#000000"/><path fill="#ffffff" fill-opacity="1.0" d="M45.0 5.0 L50.0 0.0 L50.0 45.0 L45.0 50.0 L45.0 5.0z" stroke-width="1.0" stroke-linejoin="round" stroke="#000000"/><path fill="#ffffff" fill-opacity="1.0" d="M0.0 5.0 L45.0 5.0 L45.0 50.0 L0.0 50.0 L0.0 5.0z" stroke-width="1.0" stroke-linejoin="round" stroke="#000000"/><g transform="translate(0.0 5.0)"><clipPath id="id3"><path d="M0 0 L45.0 0 L45.0 45.0 L0 45.0z"/></clipPath><text font-size="12" clip-path="url(#id3)" text-decoration="none" fill="#000000" font-family="Arial,Arial" font-style="normal" font-weight="normal"><tspan x="10.5" xml:space="preserve" y="26.75" textLength="23.5">JOB</tspan></text></g></g><g transform="translate(467.5 278.0)"><path fill="#ffffff" fill-opacity="1.0" d="M5.0 0.0 L50.0 0.0 L45.0 5.0 L0.0 5.0 L5.0 0.0z" stroke-width="1.0" stroke-linejoin="round" stroke="#000000"/><path fill="#ffffff" fill-opacity="1.0" d="M45.0 5.0 L50.0 0.0 L50.0 45.0 L45.0 50.0 L45.0 5.0z" stroke-width="1.0" stroke-linejoin="round" stroke="#000000"/><path fill="#ffffff" fill-opacity="1.0" d="M0.0 5.0 L45.0 5.0 L45.0 50.0 L0.0 50.0 L0.0 5.0z" stroke-width="1.0" stroke-linejoin="round" stroke="#000000"/><g transform="translate(0.0 5.0)"><clipPath id="id4"><path d="M0 0 L45.0 0 L45.0 45.0 L0 45.0z"/></clipPath><text font-size="12" clip-path="url(#id4)" text-decoration="none" fill="#000000" font-family="Arial,Arial" font-style="normal" font-weight="normal"><tspan x="10.5" xml:space="preserve" y="26.75" textLength="23.5">JOB</tspan></text></g></g><g transform="translate(517.5 278.0)"><path fill="#ffffff" fill-opacity="1.0" d="M5.0 0.0 L50.0 0.0 L45.0 5.0 L0.0 5.0 L5.0 0.0z" stroke-width="1.0" stroke-linejoin="round" stroke="#000000"/><path fill="#ffffff" fill-opacity="1.0" d="M45.0 5.0 L50.0 0.0 L50.0 45.0 L45.0 50.0 L45.0 5.0z" stroke-width="1.0" stroke-linejoin="round" stroke="#000000"/><path fill="#ffffff" fill-opacity="1.0" d="M0.0 5.0 L45.0 5.0 L45.0 50.0 L0.0 50.0 L0.0 5.0z" stroke-width="1.0" stroke-linejoin="round" stroke="#000000"/><g transform="translate(0.0 5.0)"><clipPath id="id5"><path d="M0 0 L45.0 0 L45.0 45.0 L0 45.0z"/></clipPath><text font-size="12" clip-path="url(#id5)" text-decoration="none" fill="#000000" font-family="Arial,Arial" font-style="normal" font-weight="normal"/></g></g><g transform="translate(617.5 278.0)"><path fill="#ffffff" fill-opacity="1.0" d="M5.0 0.0 L50.0 0.0 L45.0 5.0 L0.0 5.0 L5.0 0.0z" stroke-width="1.0" stroke-linejoin="round" stroke="#000000"/><path fill="#ffffff" fill-opacity="1.0" d="M45.0 5.0 L50.0 0.0 L50.0 45.0 L45.0 50.0 L45.0 5.0z" stroke-width="1.0" stroke-linejoin="round" stroke="#000000"/><path fill="#ffffff" fill-opacity="1.0" d="M0.0 5.0 L45.0 5.0 L45.0 50.0 L0.0 50.0 L0.0 5.0z" stroke-width="1.0" stroke-linejoin="round" stroke="#000000"/><g transform="translate(0.0 5.0)"><clipPath id="id6"><path d="M0 0 L45.0 0 L45.0 45.0 L0 45.0z"/></clipPath><text font-size="12" clip-path="url(#id6)" text-decoration="none" fill="#000000" font-family="Arial,Arial" font-style="normal" font-weight="normal"/></g></g><g transform="translate(567.5 278.0)"><path fill="#ffffff" fill-opacity="1.0" d="M5.0 0.0 L50.0 0.0 L45.0 5.0 L0.0 5.0 L5.0 0.0z" stroke-width="1.0" stroke-linejoin="round" stroke="#000000"/><path fill="#ffffff" fill-opacity="1.0" d="M45.0 5.0 L50.0 0.0 L50.0 45.0 L45.0 50.0 L45.0 5.0z" stroke-width="1.0" stroke-linejoin="round" stroke="#000000"/><path fill="#ffffff" fill-opacity="1.0" d="M0.0 5.0 L45.0 5.0 L45.0 50.0 L0.0 50.0 L0.0 5.0z" stroke-width="1.0" stroke-linejoin="round" stroke="#000000"/><g transform="translate(0.0 5.0)"><clipPath id="id7"><path d="M0 0 L45.0 0 L45.0 45.0 L0 45.0z"/></clipPath><text font-size="12" clip-path="url(#id7)" text-decoration="none" fill="#000000" font-family="Arial,Arial" font-style="normal" font-weight="normal"/></g></g><g transform="translate(667.5 278.0)"><path fill="#ffffff" fill-opacity="1.0" d="M5.0 0.0 L50.0 0.0 L45.0 5.0 L0.0 5.0 L5.0 0.0z" stroke-width="1.0" stroke-linejoin="round" stroke="#000000"/><path fill="#ffffff" fill-opacity="1.0" d="M45.0 5.0 L50.0 0.0 L50.0 45.0 L45.0 50.0 L45.0 5.0z" stroke-width="1.0" stroke-linejoin="round" stroke="#000000"/><path fill="#ffffff" fill-opacity="1.0" d="M0.0 5.0 L45.0 5.0 L45.0 50.0 L0.0 50.0 L0.0 5.0z" stroke-width="1.0" stroke-linejoin="round" stroke="#000000"/><g transform="translate(0.0 5.0)"><clipPath id="id8"><path d="M0 0 L45.0 0 L45.0 45.0 L0 45.0z"/></clipPath><text font-size="12" clip-path="url(#id8)" text-decoration="none" fill="#000000" font-family="Arial,Arial" font-style="normal" font-weight="normal"/></g></g><g transform="translate(717.5 278.0)"><path fill="#ffffff" fill-opacity="1.0" d="M5.0 0.0 L50.0 0.0 L45.0 5.0 L0.0 5.0 L5.0 0.0z" stroke-width="1.0" stroke-linejoin="round" stroke="#000000"/><path fill="#ffffff" fill-opacity="1.0" d="M45.0 5.0 L50.0 0.0 L50.0 45.0 L45.0 50.0 L45.0 5.0z" stroke-width="1.0" stroke-linejoin="round" stroke="#000000"/><path fill="#ffffff" fill-opacity="1.0" d="M0.0 5.0 L45.0 5.0 L45.0 50.0 L0.0 50.0 L0.0 5.0z" stroke-width="1.0" stroke-linejoin="round" stroke="#000000"/><g transform="translate(0.0 5.0)"><clipPath id="id9"><path d="M0 0 L45.0 0 L45.0 45.0 L0 45.0z"/></clipPath><text font-size="12" clip-path="url(#id9)" text-decoration="none" fill="#000000" font-family="Arial,Arial" font-style="normal" font-weight="normal"/></g></g><g transform="translate(436.75 452.0)"><path fill="#ffffff" fill-opacity="1.0" d="M311.5 50.0 L0.0 50.0 L0.0 0.0 L311.5 0.0 L311.5 50.0z" stroke-width="2.0" stroke-linejoin="round" stroke="#000000"/><g transform="translate(1.0 1.0)"><clipPath id="id10"><path d="M0 0 L309.5 0 L309.5 48.0 L0 48.0z"/></clipPath><text font-size="12" clip-path="url(#id10)" text-decoration="none" fill="#000000" font-family="Arial,Arial" font-style="normal" font-weight="normal"><tspan x="118.0" xml:space="preserve" y="28.25" textLength="73.0">SCHEDULER</tspan></text></g></g><g transform="translate(333.4641715324524 630.0)"><path fill="#d4e1f5" fill-opacity="1.0" d="M499.64757693429857 83.23020858288596 Q512.2156809528299 74.9125627306649 512.2156809528299 65.22386001777733 Q512.2156809528299 50.53092494554864 485.6389440507132 40.14143723488712 Q459.0626074066862 29.75210600184038 421.47837277802074 29.75210600184038 Q406.08944987189057 29.75210600184038 391.5778926985191 31.732564933251723 Q367.82857894248224 13.731301890623305 316.1070284543728 13.731301890623305 Q298.0990167378841 13.731301890623305 281.675226540674 16.584749434869465 Q254.92557814378 0.0 204.8831103422228 0.0 Q173.6919980522832 0.0 149.15297508514558 7.481429478858564 Q125.02521730523854 14.83759862708901 117.20817681218382 26.333383074216233 Q117.03746673690027 26.332209492105413 116.41146308451226 26.324229133751842 Q115.91894550505995 26.317970029160808 115.61454922779583 26.317970029160808 Q85.91279728986116 26.317970029160808 64.90865364245792 34.529211103334234 Q43.90471012409955 42.74053041631504 43.90471012409955 54.3523430147986 Q43.90471012409955 56.556017263687785 44.803089406570685 58.77604342332105 Q25.48243128470702 60.265553838372966 12.824269195979156 66.21639752830094 Q0.0 72.24516707038731 0.0 80.09987389929381 Q0.0 96.01427323246327 38.7960159954204 100.82376920021574 Q38.04833388374471 102.75830195169036 38.04833388374471 104.70144097197763 Q38.04833388374471 115.36531218014872 57.33817213269669 122.90651610785167 Q76.62801038164866 130.44772003555465 103.90539906989402 130.44772003555465 Q114.31611198460745 130.44772003555465 124.21489480251508 129.19276956505183 Q151.50789355626114 143.03430993528474 196.10184811093112 143.03430993528474 Q230.0205191535549 143.03430993528474 255.6174242519339 134.32273168786534 Q282.6684669904188 149.9000000000001 330.7440665388847 149.9000000000001 Q389.1052983490135 149.9000000000001 413.3333207804059 129.11327893674567 Q427.70758942898897 131.59110196672225 443.4337297757437 131.59110196672225 Q474.3488641127923 131.59110196672225 496.20996033037636 123.04546822977268 Q518.0716569350949 114.49967801520836 518.0716569350949 102.41326881110946 Q518.0668538380178 91.47571825469531 499.64757693429857 83.23020858288596" stroke-width="2.0" stroke-linejoin="round" stroke="#5389d6"/><g transform="translate(96.19282290585616 25.025409984588638)"><clipPath id="id11"><path d="M0 0 L315.5956679436471 0 L315.5956679436471 99.84918003082282 L0 99.84918003082282z"/></clipPath><text font-size="12" clip-path="url(#id11)" text-decoration="none" fill="#000000" font-family="Arial,Arial" font-style="normal" font-weight="normal"/></g></g><g transform="translate(432.4677500000001 693.0)"><path fill="#828999" fill-opacity="1.0" d="M-0.07533154082969816 12.8015 L16.75580357545339 15.2265002 L16.75580357545339 41.357501500000005 L-0.07533154082969816 38.485 L-0.07533154082969816 12.8015 L-0.07533154082969816 12.8015z" stroke="none"/><path fill="#757a8a" fill-opacity="1.0" d="M32.5311465315561 5.304 L16.44642674248168 15.1815005 L16.755803638708876 41.242000000000004 L32.564498274850166 30.991999999999997 L32.5311465315561 5.304500679 L32.5311465315561 5.304z" stroke="none"/><path fill="#6d7384" fill-opacity="1.0" d="M32.564499999999825 28.35 L16.82653471719428 38.729 L0.0 35.7485005 L0.0 36.502502 L16.823084417877677 39.567001000000005 L32.68296027653658 29.35300025 L32.564499999999825 28.35 L32.564499999999825 28.35z" stroke="none"/><path fill="none" d="M16.426299996468153 15.210499500000001 L0.0 12.653500000000001 L0.0 38.391503 L16.82653471719428 41.3720025 L32.564498849900055 30.992001000000002 L32.564498849900055 5.272 L16.426299996468153 15.210499500000001 L16.426299996468153 15.210499500000001z" stroke-width="1.0" stroke-linejoin="round" stroke="#757575"/><path fill="#828999" fill-opacity="1.0" d="M-0.07533154082969816 10.045 L16.75580357545339 12.831000249999999 L16.75580357545339 38.5999985 L-0.07533154082969816 35.729 L-0.07533154082969816 10.045 L-0.07533154082969816 10.045z" stroke="none"/><path fill="#757a8a" fill-opacity="1.0" d="M32.5311465315561 2.548 L16.44642674248168 12.425 L16.755803638708876 38.487 L32.56450057504971 28.235 L32.5311465315561 2.548 L32.5311465315561 2.548z" stroke="none"/><path fill="#949ba8" fill-opacity="1.0" d="M32.34138238084339 2.548 L16.75580416775477 12.6305 L0.04485447766674295 9.894 L16.236534120605786 0.0 L32.34138238084339 2.548 L32.34138238084339 2.548z" stroke="none"/><path fill="#9ea4ad" fill-opacity="1.0" d="M17.34983011354597 12.888 L32.472492018223704 2.7960001 L32.33390499567342 2.475 L16.73625188507646 12.157501 Q16.52405847710528 12.2954995 16.19685509191395 12.2410005 Q16.124073328029723 12.229135 13.576820851560083 11.860195 Q11.54053930228322 11.5652635 8.019070661675071 11.0560625 Q6.6354391053788335 10.855991 5.06898826434333 10.62956 Q3.835484981811419 10.4512575 2.5010000640307837 10.258397500000001 Q1.513657811192137 10.1157095 0.6872790370817036 9.9963035 Q0.24976932971657498 9.9330865 0.0 9.8970005 Q0.2526715489867369 10.2047185 0.6951747020378215 10.277801 Q1.580304367841557 10.423986 2.5293390974677155 10.5807815 Q3.8578147439385977 10.800267999999999 5.125453562759336 11.009808999999999 Q6.709828708744601 11.271707 8.106478244362386 11.502749999999999 Q11.662084721458907 12.090942 13.715100797471187 12.4318445 Q16.28117120641359 12.8579385 16.338892413780837 12.871 Q16.506231930636158 12.908999999999999 16.54591037277711 13.098500999999999 L16.54591037277711 38.5330025 Q17.165815300093502 38.4195 17.165815300093502 37.861000000000004 Q17.165815300093502 37.3261275 17.16604992044703 35.88133 Q17.16614422862835 35.30232 17.166304092496688 34.39855 Q17.16637884898188 33.978825 17.166454755566843 33.5591 Q17.166534687501013 33.111488 17.16661461943518 32.663875 Q17.166818762144747 31.52571 17.16695562401764 30.734857 Q17.16714826572948 29.623230000000003 17.167301228999186 28.669046 Q17.167684212223328 26.2795175 17.167900430980502 24.35725 Q17.168162078678677 22.016620000000003 17.16820175712082 20.18889 Q17.168246611011934 18.091821500000002 17.16799933956091 16.624374 Q17.16741968927572 13.203472 17.1652402502074 13.1485 Q17.158340226624077 12.968499999999999 17.34925621375964 12.888 L17.34983011354597 12.888z" stroke="none"/><path fill="none" d="M1.7734538487347378 8.8405 L1.7734538487347378 8.8405z" stroke-width="1.0" stroke-linejoin="round" stroke="#aaaaaa"/><path fill="none" d="M18.438974597820806 11.528 L18.438974597820806 11.528z" stroke-width="1.0" stroke-linejoin="round" stroke="#aaaaaa"/><path fill="none" d="M18.438974597820806 21.2835 L18.438974597820806 21.2835z" stroke-width="1.0" stroke-linejoin="round" stroke="#757575"/><path fill="#6d7384" fill-opacity="1.0" d="M32.564499999999825 19.477500907348652 L16.82653471719428 29.856001 L0.0 26.876499000000003 L0.0 27.630499 L16.823084417877677 30.6949995 L32.68296027653658 20.48049925 L32.564498849900055 19.477499 L32.564499999999825 19.477500907348652z" stroke="none"/><path fill="none" d="M0.0 26.876499000000003 L16.82653471719428 29.855999000000004 L32.564498849900055 19.477499" stroke-width="1.0" stroke-linejoin="round" stroke="#757575"/><path fill="#6d7384" fill-opacity="1.0" d="M32.564499999999825 10.83800040734865 L16.82653471719428 21.217501 L0.0 18.2369995 L0.0 18.991498999999997 L16.823084417877677 22.0549985 L32.68296027653658 11.840998749999999 L32.564498849900055 10.8379985 L32.564499999999825 10.83800040734865z" stroke="none"/><path fill="none" d="M0.0 18.2369995 L16.82653471719428 21.2169995 L32.564498849900055 10.8379995" stroke-width="1.0" stroke-linejoin="round" stroke="#757575"/><path fill="none" d="M16.426299996468153 0.0 L0.0 9.897 L0.0 35.634 L16.82653471719428 38.6145 L32.564498849900055 28.234497 L32.564498849900055 2.516 L16.426299996468153 0.0 L16.426299996468153 0.0z" stroke-width="1.0" stroke-linejoin="round" stroke="#757575"/><path fill="url(#id12)" d="M14.87481569129325 39.755499635 Q15.249878983375044 39.705218110000004 15.643082626648805 39.6715 Q15.651707972405397 39.74199942 15.651707972405397 39.740999970000004 Q15.651707972405397 40.5730007 14.623518718552255 40.5730007 Q13.884938348283226 40.5730007 13.652259920967984 40.00050238 Q14.255545274021186 39.836996825 14.875391488744203 39.75550345 L14.87481569129325 39.755499635z" stroke="none"/><path fill="#616672" fill-opacity="1.0" d="M15.537272642536426 39.58150075 Q15.537272642536426 40.4145009 14.623517970987402 40.4145009 Q13.710913859250487 40.4145009 13.710913859250487 39.58150075 Q13.710913859250487 38.7495 14.623517970987402 38.7495 Q15.537272642536426 38.7495 15.537272642536426 39.58150075 L15.537272642536426 39.58150075z" stroke="none"/><path fill="#878da0" fill-opacity="1.0" d="M15.343480715910493 39.581499400000006 Q15.343480715910493 40.276998850000005 14.623517740967447 40.276998850000005 Q13.905280145702656 40.276998850000005 13.905280145702656 39.581499400000006 Q13.905280145702656 38.886 14.623517740967447 38.886 Q15.343480715910493 38.886 15.343480715910493 39.581499400000006 L15.343480715910493 39.581499400000006z" stroke="none"/><path fill="#e1e1e5" fill-opacity="1.0" d="M14.702300150413137 39.070997565 Q14.913371176016625 39.070997565 15.085283547071207 39.1834968 Q14.898607977795749 38.971495 14.62294297860629 38.971495 Q14.009939800022881 38.971495 14.009939800022881 39.5809959 Q14.009939800022881 39.60013805 14.019141028337808 39.6629966 Q14.092747558671276 39.070997565 14.702300150413137 39.070997565 L14.702300150413137 39.070997565z" stroke="none"/></g><g transform="translate(557.46775 693.0)"><path fill="#828999" fill-opacity="1.0" d="M-0.07533154082969816 12.8015 L16.75580357545339 15.2265002 L16.75580357545339 41.357501500000005 L-0.07533154082969816 38.485 L-0.07533154082969816 12.8015 L-0.07533154082969816 12.8015z" stroke="none"/><path fill="#757a8a" fill-opacity="1.0" d="M32.5311465315561 5.304 L16.44642674248168 15.1815005 L16.755803638708876 41.242000000000004 L32.564498274850166 30.991999999999997 L32.5311465315561 5.304500679 L32.5311465315561 5.304z" stroke="none"/><path fill="#6d7384" fill-opacity="1.0" d="M32.564499999999825 28.35 L16.82653471719428 38.729 L0.0 35.7485005 L0.0 36.502502 L16.823084417877677 39.567001000000005 L32.68296027653658 29.35300025 L32.564499999999825 28.35 L32.564499999999825 28.35z" stroke="none"/><path fill="none" d="M16.426299996468153 15.210499500000001 L0.0 12.653500000000001 L0.0 38.391503 L16.82653471719428 41.3720025 L32.564498849900055 30.992001000000002 L32.564498849900055 5.272 L16.426299996468153 15.210499500000001 L16.426299996468153 15.210499500000001z" stroke-width="1.0" stroke-linejoin="round" stroke="#757575"/><path fill="#828999" fill-opacity="1.0" d="M-0.07533154082969816 10.045 L16.75580357545339 12.831000249999999 L16.75580357545339 38.5999985 L-0.07533154082969816 35.729 L-0.07533154082969816 10.045 L-0.07533154082969816 10.045z" stroke="none"/><path fill="#757a8a" fill-opacity="1.0" d="M32.5311465315561 2.548 L16.44642674248168 12.425 L16.755803638708876 38.487 L32.56450057504971 28.235 L32.5311465315561 2.548 L32.5311465315561 2.548z" stroke="none"/><path fill="#949ba8" fill-opacity="1.0" d="M32.34138238084339 2.548 L16.75580416775477 12.6305 L0.04485447766674295 9.894 L16.236534120605786 0.0 L32.34138238084339 2.548 L32.34138238084339 2.548z" stroke="none"/><path fill="#9ea4ad" fill-opacity="1.0" d="M17.34983011354597 12.888 L32.472492018223704 2.7960001 L32.33390499567342 2.475 L16.73625188507646 12.157501 Q16.52405847710528 12.2954995 16.19685509191395 12.2410005 Q16.124073328029723 12.229135 13.576820851560083 11.860195 Q11.54053930228322 11.5652635 8.019070661675071 11.0560625 Q6.6354391053788335 10.855991 5.06898826434333 10.62956 Q3.835484981811419 10.4512575 2.5010000640307837 10.258397500000001 Q1.513657811192137 10.1157095 0.6872790370817036 9.9963035 Q0.24976932971657498 9.9330865 0.0 9.8970005 Q0.2526715489867369 10.2047185 0.6951747020378215 10.277801 Q1.580304367841557 10.423986 2.5293390974677155 10.5807815 Q3.8578147439385977 10.800267999999999 5.125453562759336 11.009808999999999 Q6.709828708744601 11.271707 8.106478244362386 11.502749999999999 Q11.662084721458907 12.090942 13.715100797471187 12.4318445 Q16.28117120641359 12.8579385 16.338892413780837 12.871 Q16.506231930636158 12.908999999999999 16.54591037277711 13.098500999999999 L16.54591037277711 38.5330025 Q17.165815300093502 38.4195 17.165815300093502 37.861000000000004 Q17.165815300093502 37.3261275 17.16604992044703 35.88133 Q17.16614422862835 35.30232 17.166304092496688 34.39855 Q17.16637884898188 33.978825 17.166454755566843 33.5591 Q17.166534687501013 33.111488 17.16661461943518 32.663875 Q17.166818762144747 31.52571 17.16695562401764 30.734857 Q17.16714826572948 29.623230000000003 17.167301228999186 28.669046 Q17.167684212223328 26.2795175 17.167900430980502 24.35725 Q17.168162078678677 22.016620000000003 17.16820175712082 20.18889 Q17.168246611011934 18.091821500000002 17.16799933956091 16.624374 Q17.16741968927572 13.203472 17.1652402502074 13.1485 Q17.158340226624077 12.968499999999999 17.34925621375964 12.888 L17.34983011354597 12.888z" stroke="none"/><path fill="none" d="M1.7734538487347378 8.8405 L1.7734538487347378 8.8405z" stroke-width="1.0" stroke-linejoin="round" stroke="#aaaaaa"/><path fill="none" d="M18.438974597820806 11.528 L18.438974597820806 11.528z" stroke-width="1.0" stroke-linejoin="round" stroke="#aaaaaa"/><path fill="none" d="M18.438974597820806 21.2835 L18.438974597820806 21.2835z" stroke-width="1.0" stroke-linejoin="round" stroke="#757575"/><path fill="#6d7384" fill-opacity="1.0" d="M32.564499999999825 19.477500907348652 L16.82653471719428 29.856001 L0.0 26.876499000000003 L0.0 27.630499 L16.823084417877677 30.6949995 L32.68296027653658 20.48049925 L32.564498849900055 19.477499 L32.564499999999825 19.477500907348652z" stroke="none"/><path fill="none" d="M0.0 26.876499000000003 L16.82653471719428 29.855999000000004 L32.564498849900055 19.477499" stroke-width="1.0" stroke-linejoin="round" stroke="#757575"/><path fill="#6d7384" fill-opacity="1.0" d="M32.564499999999825 10.83800040734865 L16.82653471719428 21.217501 L0.0 18.2369995 L0.0 18.991498999999997 L16.823084417877677 22.0549985 L32.68296027653658 11.840998749999999 L32.564498849900055 10.8379985 L32.564499999999825 10.83800040734865z" stroke="none"/><path fill="none" d="M0.0 18.2369995 L16.82653471719428 21.2169995 L32.564498849900055 10.8379995" stroke-width="1.0" stroke-linejoin="round" stroke="#757575"/><path fill="none" d="M16.426299996468153 0.0 L0.0 9.897 L0.0 35.634 L16.82653471719428 38.6145 L32.564498849900055 28.234497 L32.564498849900055 2.516 L16.426299996468153 0.0 L16.426299996468153 0.0z" stroke-width="1.0" stroke-linejoin="round" stroke="#757575"/><path fill="url(#id13)" d="M14.87481569129325 39.755499635 Q15.249878983375044 39.705218110000004 15.643082626648805 39.6715 Q15.651707972405397 39.74199942 15.651707972405397 39.740999970000004 Q15.651707972405397 40.5730007 14.623518718552255 40.5730007 Q13.884938348283226 40.5730007 13.652259920967984 40.00050238 Q14.255545274021186 39.836996825 14.875391488744203 39.75550345 L14.87481569129325 39.755499635z" stroke="none"/><path fill="#616672" fill-opacity="1.0" d="M15.537272642536426 39.58150075 Q15.537272642536426 40.4145009 14.623517970987402 40.4145009 Q13.710913859250487 40.4145009 13.710913859250487 39.58150075 Q13.710913859250487 38.7495 14.623517970987402 38.7495 Q15.537272642536426 38.7495 15.537272642536426 39.58150075 L15.537272642536426 39.58150075z" stroke="none"/><path fill="#878da0" fill-opacity="1.0" d="M15.343480715910493 39.581499400000006 Q15.343480715910493 40.276998850000005 14.623517740967447 40.276998850000005 Q13.905280145702656 40.276998850000005 13.905280145702656 39.581499400000006 Q13.905280145702656 38.886 14.623517740967447 38.886 Q15.343480715910493 38.886 15.343480715910493 39.581499400000006 L15.343480715910493 39.581499400000006z" stroke="none"/><path fill="#e1e1e5" fill-opacity="1.0" d="M14.702300150413137 39.070997565 Q14.913371176016625 39.070997565 15.085283547071207 39.1834968 Q14.898607977795749 38.971495 14.62294297860629 38.971495 Q14.009939800022881 38.971495 14.009939800022881 39.5809959 Q14.009939800022881 39.60013805 14.019141028337808 39.6629966 Q14.092747558671276 39.070997565 14.702300150413137 39.070997565 L14.702300150413137 39.070997565z" stroke="none"/></g><g transform="translate(516.1855000000003 693.0)"><path fill="#828999" fill-opacity="1.0" d="M-0.07533154082969816 12.8015 L16.75580357545339 15.2265002 L16.75580357545339 41.357501500000005 L-0.07533154082969816 38.485 L-0.07533154082969816 12.8015 L-0.07533154082969816 12.8015z" stroke="none"/><path fill="#757a8a" fill-opacity="1.0" d="M32.5311465315561 5.304 L16.44642674248168 15.1815005 L16.755803638708876 41.242000000000004 L32.564498274850166 30.991999999999997 L32.5311465315561 5.304500679 L32.5311465315561 5.304z" stroke="none"/><path fill="#6d7384" fill-opacity="1.0" d="M32.564499999999825 28.35 L16.82653471719428 38.729 L0.0 35.7485005 L0.0 36.502502 L16.823084417877677 39.567001000000005 L32.68296027653658 29.35300025 L32.564499999999825 28.35 L32.564499999999825 28.35z" stroke="none"/><path fill="none" d="M16.426299996468153 15.210499500000001 L0.0 12.653500000000001 L0.0 38.391503 L16.82653471719428 41.3720025 L32.564498849900055 30.992001000000002 L32.564498849900055 5.272 L16.426299996468153 15.210499500000001 L16.426299996468153 15.210499500000001z" stroke-width="1.0" stroke-linejoin="round" stroke="#757575"/><path fill="#828999" fill-opacity="1.0" d="M-0.07533154082969816 10.045 L16.75580357545339 12.831000249999999 L16.75580357545339 38.5999985 L-0.07533154082969816 35.729 L-0.07533154082969816 10.045 L-0.07533154082969816 10.045z" stroke="none"/><path fill="#757a8a" fill-opacity="1.0" d="M32.5311465315561 2.548 L16.44642674248168 12.425 L16.755803638708876 38.487 L32.56450057504971 28.235 L32.5311465315561 2.548 L32.5311465315561 2.548z" stroke="none"/><path fill="#949ba8" fill-opacity="1.0" d="M32.34138238084339 2.548 L16.75580416775477 12.6305 L0.04485447766674295 9.894 L16.236534120605786 0.0 L32.34138238084339 2.548 L32.34138238084339 2.548z" stroke="none"/><path fill="#9ea4ad" fill-opacity="1.0" d="M17.34983011354597 12.888 L32.472492018223704 2.7960001 L32.33390499567342 2.475 L16.73625188507646 12.157501 Q16.52405847710528 12.2954995 16.19685509191395 12.2410005 Q16.124073328029723 12.229135 13.576820851560083 11.860195 Q11.54053930228322 11.5652635 8.019070661675071 11.0560625 Q6.6354391053788335 10.855991 5.06898826434333 10.62956 Q3.835484981811419 10.4512575 2.5010000640307837 10.258397500000001 Q1.513657811192137 10.1157095 0.6872790370817036 9.9963035 Q0.24976932971657498 9.9330865 0.0 9.8970005 Q0.2526715489867369 10.2047185 0.6951747020378215 10.277801 Q1.580304367841557 10.423986 2.5293390974677155 10.5807815 Q3.8578147439385977 10.800267999999999 5.125453562759336 11.009808999999999 Q6.709828708744601 11.271707 8.106478244362386 11.502749999999999 Q11.662084721458907 12.090942 13.715100797471187 12.4318445 Q16.28117120641359 12.8579385 16.338892413780837 12.871 Q16.506231930636158 12.908999999999999 16.54591037277711 13.098500999999999 L16.54591037277711 38.5330025 Q17.165815300093502 38.4195 17.165815300093502 37.861000000000004 Q17.165815300093502 37.3261275 17.16604992044703 35.88133 Q17.16614422862835 35.30232 17.166304092496688 34.39855 Q17.16637884898188 33.978825 17.166454755566843 33.5591 Q17.166534687501013 33.111488 17.16661461943518 32.663875 Q17.166818762144747 31.52571 17.16695562401764 30.734857 Q17.16714826572948 29.623230000000003 17.167301228999186 28.669046 Q17.167684212223328 26.2795175 17.167900430980502 24.35725 Q17.168162078678677 22.016620000000003 17.16820175712082 20.18889 Q17.168246611011934 18.091821500000002 17.16799933956091 16.624374 Q17.16741968927572 13.203472 17.1652402502074 13.1485 Q17.158340226624077 12.968499999999999 17.34925621375964 12.888 L17.34983011354597 12.888z" stroke="none"/><path fill="none" d="M1.7734538487347378 8.8405 L1.7734538487347378 8.8405z" stroke-width="1.0" stroke-linejoin="round" stroke="#aaaaaa"/><path fill="none" d="M18.438974597820806 11.528 L18.438974597820806 11.528z" stroke-width="1.0" stroke-linejoin="round" stroke="#aaaaaa"/><path fill="none" d="M18.438974597820806 21.2835 L18.438974597820806 21.2835z" stroke-width="1.0" stroke-linejoin="round" stroke="#757575"/><path fill="#6d7384" fill-opacity="1.0" d="M32.564499999999825 19.477500907348652 L16.82653471719428 29.856001 L0.0 26.876499000000003 L0.0 27.630499 L16.823084417877677 30.6949995 L32.68296027653658 20.48049925 L32.564498849900055 19.477499 L32.564499999999825 19.477500907348652z" stroke="none"/><path fill="none" d="M0.0 26.876499000000003 L16.82653471719428 29.855999000000004 L32.564498849900055 19.477499" stroke-width="1.0" stroke-linejoin="round" stroke="#757575"/><path fill="#6d7384" fill-opacity="1.0" d="M32.564499999999825 10.83800040734865 L16.82653471719428 21.217501 L0.0 18.2369995 L0.0 18.991498999999997 L16.823084417877677 22.0549985 L32.68296027653658 11.840998749999999 L32.564498849900055 10.8379985 L32.564499999999825 10.83800040734865z" stroke="none"/><path fill="none" d="M0.0 18.2369995 L16.82653471719428 21.2169995 L32.564498849900055 10.8379995" stroke-width="1.0" stroke-linejoin="round" stroke="#757575"/><path fill="none" d="M16.426299996468153 0.0 L0.0 9.897 L0.0 35.634 L16.82653471719428 38.6145 L32.564498849900055 28.234497 L32.564498849900055 2.516 L16.426299996468153 0.0 L16.426299996468153 0.0z" stroke-width="1.0" stroke-linejoin="round" stroke="#757575"/><path fill="url(#id14)" d="M14.87481569129325 39.755499635 Q15.249878983375044 39.705218110000004 15.643082626648805 39.6715 Q15.651707972405397 39.74199942 15.651707972405397 39.740999970000004 Q15.651707972405397 40.5730007 14.623518718552255 40.5730007 Q13.884938348283226 40.5730007 13.652259920967984 40.00050238 Q14.255545274021186 39.836996825 14.875391488744203 39.75550345 L14.87481569129325 39.755499635z" stroke="none"/><path fill="#616672" fill-opacity="1.0" d="M15.537272642536426 39.58150075 Q15.537272642536426 40.4145009 14.623517970987402 40.4145009 Q13.710913859250487 40.4145009 13.710913859250487 39.58150075 Q13.710913859250487 38.7495 14.623517970987402 38.7495 Q15.537272642536426 38.7495 15.537272642536426 39.58150075 L15.537272642536426 39.58150075z" stroke="none"/><path fill="#878da0" fill-opacity="1.0" d="M15.343480715910493 39.581499400000006 Q15.343480715910493 40.276998850000005 14.623517740967447 40.276998850000005 Q13.905280145702656 40.276998850000005 13.905280145702656 39.581499400000006 Q13.905280145702656 38.886 14.623517740967447 38.886 Q15.343480715910493 38.886 15.343480715910493 39.581499400000006 L15.343480715910493 39.581499400000006z" stroke="none"/><path fill="#e1e1e5" fill-opacity="1.0" d="M14.702300150413137 39.070997565 Q14.913371176016625 39.070997565 15.085283547071207 39.1834968 Q14.898607977795749 38.971495 14.62294297860629 38.971495 Q14.009939800022881 38.971495 14.009939800022881 39.5809959 Q14.009939800022881 39.60013805 14.019141028337808 39.6629966 Q14.092747558671276 39.070997565 14.702300150413137 39.070997565 L14.702300150413137 39.070997565z" stroke="none"/></g><g transform="translate(473.75000000000006 693.0)"><path fill="#828999" fill-opacity="1.0" d="M-0.07533154082969816 12.8015 L16.75580357545339 15.2265002 L16.75580357545339 41.357501500000005 L-0.07533154082969816 38.485 L-0.07533154082969816 12.8015 L-0.07533154082969816 12.8015z" stroke="none"/><path fill="#757a8a" fill-opacity="1.0" d="M32.5311465315561 5.304 L16.44642674248168 15.1815005 L16.755803638708876 41.242000000000004 L32.564498274850166 30.991999999999997 L32.5311465315561 5.304500679 L32.5311465315561 5.304z" stroke="none"/><path fill="#6d7384" fill-opacity="1.0" d="M32.564499999999825 28.35 L16.82653471719428 38.729 L0.0 35.7485005 L0.0 36.502502 L16.823084417877677 39.567001000000005 L32.68296027653658 29.35300025 L32.564499999999825 28.35 L32.564499999999825 28.35z" stroke="none"/><path fill="none" d="M16.426299996468153 15.210499500000001 L0.0 12.653500000000001 L0.0 38.391503 L16.82653471719428 41.3720025 L32.564498849900055 30.992001000000002 L32.564498849900055 5.272 L16.426299996468153 15.210499500000001 L16.426299996468153 15.210499500000001z" stroke-width="1.0" stroke-linejoin="round" stroke="#757575"/><path fill="#828999" fill-opacity="1.0" d="M-0.07533154082969816 10.045 L16.75580357545339 12.831000249999999 L16.75580357545339 38.5999985 L-0.07533154082969816 35.729 L-0.07533154082969816 10.045 L-0.07533154082969816 10.045z" stroke="none"/><path fill="#757a8a" fill-opacity="1.0" d="M32.5311465315561 2.548 L16.44642674248168 12.425 L16.755803638708876 38.487 L32.56450057504971 28.235 L32.5311465315561 2.548 L32.5311465315561 2.548z" stroke="none"/><path fill="#949ba8" fill-opacity="1.0" d="M32.34138238084339 2.548 L16.75580416775477 12.6305 L0.04485447766674295 9.894 L16.236534120605786 0.0 L32.34138238084339 2.548 L32.34138238084339 2.548z" stroke="none"/><path fill="#9ea4ad" fill-opacity="1.0" d="M17.34983011354597 12.888 L32.472492018223704 2.7960001 L32.33390499567342 2.475 L16.73625188507646 12.157501 Q16.52405847710528 12.2954995 16.19685509191395 12.2410005 Q16.124073328029723 12.229135 13.576820851560083 11.860195 Q11.54053930228322 11.5652635 8.019070661675071 11.0560625 Q6.6354391053788335 10.855991 5.06898826434333 10.62956 Q3.835484981811419 10.4512575 2.5010000640307837 10.258397500000001 Q1.513657811192137 10.1157095 0.6872790370817036 9.9963035 Q0.24976932971657498 9.9330865 0.0 9.8970005 Q0.2526715489867369 10.2047185 0.6951747020378215 10.277801 Q1.580304367841557 10.423986 2.5293390974677155 10.5807815 Q3.8578147439385977 10.800267999999999 5.125453562759336 11.009808999999999 Q6.709828708744601 11.271707 8.106478244362386 11.502749999999999 Q11.662084721458907 12.090942 13.715100797471187 12.4318445 Q16.28117120641359 12.8579385 16.338892413780837 12.871 Q16.506231930636158 12.908999999999999 16.54591037277711 13.098500999999999 L16.54591037277711 38.5330025 Q17.165815300093502 38.4195 17.165815300093502 37.861000000000004 Q17.165815300093502 37.3261275 17.16604992044703 35.88133 Q17.16614422862835 35.30232 17.166304092496688 34.39855 Q17.16637884898188 33.978825 17.166454755566843 33.5591 Q17.166534687501013 33.111488 17.16661461943518 32.663875 Q17.166818762144747 31.52571 17.16695562401764 30.734857 Q17.16714826572948 29.623230000000003 17.167301228999186 28.669046 Q17.167684212223328 26.2795175 17.167900430980502 24.35725 Q17.168162078678677 22.016620000000003 17.16820175712082 20.18889 Q17.168246611011934 18.091821500000002 17.16799933956091 16.624374 Q17.16741968927572 13.203472 17.1652402502074 13.1485 Q17.158340226624077 12.968499999999999 17.34925621375964 12.888 L17.34983011354597 12.888z" stroke="none"/><path fill="none" d="M1.7734538487347378 8.8405 L1.7734538487347378 8.8405z" stroke-width="1.0" stroke-linejoin="round" stroke="#aaaaaa"/><path fill="none" d="M18.438974597820806 11.528 L18.438974597820806 11.528z" stroke-width="1.0" stroke-linejoin="round" stroke="#aaaaaa"/><path fill="none" d="M18.438974597820806 21.2835 L18.438974597820806 21.2835z" stroke-width="1.0" stroke-linejoin="round" stroke="#757575"/><path fill="#6d7384" fill-opacity="1.0" d="M32.564499999999825 19.477500907348652 L16.82653471719428 29.856001 L0.0 26.876499000000003 L0.0 27.630499 L16.823084417877677 30.6949995 L32.68296027653658 20.48049925 L32.564498849900055 19.477499 L32.564499999999825 19.477500907348652z" stroke="none"/><path fill="none" d="M0.0 26.876499000000003 L16.82653471719428 29.855999000000004 L32.564498849900055 19.477499" stroke-width="1.0" stroke-linejoin="round" stroke="#757575"/><path fill="#6d7384" fill-opacity="1.0" d="M32.564499999999825 10.83800040734865 L16.82653471719428 21.217501 L0.0 18.2369995 L0.0 18.991498999999997 L16.823084417877677 22.0549985 L32.68296027653658 11.840998749999999 L32.564498849900055 10.8379985 L32.564499999999825 10.83800040734865z" stroke="none"/><path fill="none" d="M0.0 18.2369995 L16.82653471719428 21.2169995 L32.564498849900055 10.8379995" stroke-width="1.0" stroke-linejoin="round" stroke="#757575"/><path fill="none" d="M16.426299996468153 0.0 L0.0 9.897 L0.0 35.634 L16.82653471719428 38.6145 L32.564498849900055 28.234497 L32.564498849900055 2.516 L16.426299996468153 0.0 L16.426299996468153 0.0z" stroke-width="1.0" stroke-linejoin="round" stroke="#757575"/><path fill="url(#id15)" d="M14.87481569129325 39.755499635 Q15.249878983375044 39.705218110000004 15.643082626648805 39.6715 Q15.651707972405397 39.74199942 15.651707972405397 39.740999970000004 Q15.651707972405397 40.5730007 14.623518718552255 40.5730007 Q13.884938348283226 40.5730007 13.652259920967984 40.00050238 Q14.255545274021186 39.836996825 14.875391488744203 39.75550345 L14.87481569129325 39.755499635z" stroke="none"/><path fill="#616672" fill-opacity="1.0" d="M15.537272642536426 39.58150075 Q15.537272642536426 40.4145009 14.623517970987402 40.4145009 Q13.710913859250487 40.4145009 13.710913859250487 39.58150075 Q13.710913859250487 38.7495 14.623517970987402 38.7495 Q15.537272642536426 38.7495 15.537272642536426 39.58150075 L15.537272642536426 39.58150075z" stroke="none"/><path fill="#878da0" fill-opacity="1.0" d="M15.343480715910493 39.581499400000006 Q15.343480715910493 40.276998850000005 14.623517740967447 40.276998850000005 Q13.905280145702656 40.276998850000005 13.905280145702656 39.581499400000006 Q13.905280145702656 38.886 14.623517740967447 38.886 Q15.343480715910493 38.886 15.343480715910493 39.581499400000006 L15.343480715910493 39.581499400000006z" stroke="none"/><path fill="#e1e1e5" fill-opacity="1.0" d="M14.702300150413137 39.070997565 Q14.913371176016625 39.070997565 15.085283547071207 39.1834968 Q14.898607977795749 38.971495 14.62294297860629 38.971495 Q14.009939800022881 38.971495 14.009939800022881 39.5809959 Q14.009939800022881 39.60013805 14.019141028337808 39.6629966 Q14.092747558671276 39.070997565 14.702300150413137 39.070997565 L14.702300150413137 39.070997565z" stroke="none"/></g><g transform="translate(594.96775 693.0)"><path fill="#828999" fill-opacity="1.0" d="M-0.07533154082969816 12.8015 L16.75580357545339 15.2265002 L16.75580357545339 41.357501500000005 L-0.07533154082969816 38.485 L-0.07533154082969816 12.8015 L-0.07533154082969816 12.8015z" stroke="none"/><path fill="#757a8a" fill-opacity="1.0" d="M32.5311465315561 5.304 L16.44642674248168 15.1815005 L16.755803638708876 41.242000000000004 L32.564498274850166 30.991999999999997 L32.5311465315561 5.304500679 L32.5311465315561 5.304z" stroke="none"/><path fill="#6d7384" fill-opacity="1.0" d="M32.564499999999825 28.35 L16.82653471719428 38.729 L0.0 35.7485005 L0.0 36.502502 L16.823084417877677 39.567001000000005 L32.68296027653658 29.35300025 L32.564499999999825 28.35 L32.564499999999825 28.35z" stroke="none"/><path fill="none" d="M16.426299996468153 15.210499500000001 L0.0 12.653500000000001 L0.0 38.391503 L16.82653471719428 41.3720025 L32.564498849900055 30.992001000000002 L32.564498849900055 5.272 L16.426299996468153 15.210499500000001 L16.426299996468153 15.210499500000001z" stroke-width="1.0" stroke-linejoin="round" stroke="#757575"/><path fill="#828999" fill-opacity="1.0" d="M-0.07533154082969816 10.045 L16.75580357545339 12.831000249999999 L16.75580357545339 38.5999985 L-0.07533154082969816 35.729 L-0.07533154082969816 10.045 L-0.07533154082969816 10.045z" stroke="none"/><path fill="#757a8a" fill-opacity="1.0" d="M32.5311465315561 2.548 L16.44642674248168 12.425 L16.755803638708876 38.487 L32.56450057504971 28.235 L32.5311465315561 2.548 L32.5311465315561 2.548z" stroke="none"/><path fill="#949ba8" fill-opacity="1.0" d="M32.34138238084339 2.548 L16.75580416775477 12.6305 L0.04485447766674295 9.894 L16.236534120605786 0.0 L32.34138238084339 2.548 L32.34138238084339 2.548z" stroke="none"/><path fill="#9ea4ad" fill-opacity="1.0" d="M17.34983011354597 12.888 L32.472492018223704 2.7960001 L32.33390499567342 2.475 L16.73625188507646 12.157501 Q16.52405847710528 12.2954995 16.19685509191395 12.2410005 Q16.124073328029723 12.229135 13.576820851560083 11.860195 Q11.54053930228322 11.5652635 8.019070661675071 11.0560625 Q6.6354391053788335 10.855991 5.06898826434333 10.62956 Q3.835484981811419 10.4512575 2.5010000640307837 10.258397500000001 Q1.513657811192137 10.1157095 0.6872790370817036 9.9963035 Q0.24976932971657498 9.9330865 0.0 9.8970005 Q0.2526715489867369 10.2047185 0.6951747020378215 10.277801 Q1.580304367841557 10.423986 2.5293390974677155 10.5807815 Q3.8578147439385977 10.800267999999999 5.125453562759336 11.009808999999999 Q6.709828708744601 11.271707 8.106478244362386 11.502749999999999 Q11.662084721458907 12.090942 13.715100797471187 12.4318445 Q16.28117120641359 12.8579385 16.338892413780837 12.871 Q16.506231930636158 12.908999999999999 16.54591037277711 13.098500999999999 L16.54591037277711 38.5330025 Q17.165815300093502 38.4195 17.165815300093502 37.861000000000004 Q17.165815300093502 37.3261275 17.16604992044703 35.88133 Q17.16614422862835 35.30232 17.166304092496688 34.39855 Q17.16637884898188 33.978825 17.166454755566843 33.5591 Q17.166534687501013 33.111488 17.16661461943518 32.663875 Q17.166818762144747 31.52571 17.16695562401764 30.734857 Q17.16714826572948 29.623230000000003 17.167301228999186 28.669046 Q17.167684212223328 26.2795175 17.167900430980502 24.35725 Q17.168162078678677 22.016620000000003 17.16820175712082 20.18889 Q17.168246611011934 18.091821500000002 17.16799933956091 16.624374 Q17.16741968927572 13.203472 17.1652402502074 13.1485 Q17.158340226624077 12.968499999999999 17.34925621375964 12.888 L17.34983011354597 12.888z" stroke="none"/><path fill="none" d="M1.7734538487347378 8.8405 L1.7734538487347378 8.8405z" stroke-width="1.0" stroke-linejoin="round" stroke="#aaaaaa"/><path fill="none" d="M18.438974597820806 11.528 L18.438974597820806 11.528z" stroke-width="1.0" stroke-linejoin="round" stroke="#aaaaaa"/><path fill="none" d="M18.438974597820806 21.2835 L18.438974597820806 21.2835z" stroke-width="1.0" stroke-linejoin="round" stroke="#757575"/><path fill="#6d7384" fill-opacity="1.0" d="M32.564499999999825 19.477500907348652 L16.82653471719428 29.856001 L0.0 26.876499000000003 L0.0 27.630499 L16.823084417877677 30.6949995 L32.68296027653658 20.48049925 L32.564498849900055 19.477499 L32.564499999999825 19.477500907348652z" stroke="none"/><path fill="none" d="M0.0 26.876499000000003 L16.82653471719428 29.855999000000004 L32.564498849900055 19.477499" stroke-width="1.0" stroke-linejoin="round" stroke="#757575"/><path fill="#6d7384" fill-opacity="1.0" d="M32.564499999999825 10.83800040734865 L16.82653471719428 21.217501 L0.0 18.2369995 L0.0 18.991498999999997 L16.823084417877677 22.0549985 L32.68296027653658 11.840998749999999 L32.564498849900055 10.8379985 L32.564499999999825 10.83800040734865z" stroke="none"/><path fill="none" d="M0.0 18.2369995 L16.82653471719428 21.2169995 L32.564498849900055 10.8379995" stroke-width="1.0" stroke-linejoin="round" stroke="#757575"/><path fill="none" d="M16.426299996468153 0.0 L0.0 9.897 L0.0 35.634 L16.82653471719428 38.6145 L32.564498849900055 28.234497 L32.564498849900055 2.516 L16.426299996468153 0.0 L16.426299996468153 0.0z" stroke-width="1.0" stroke-linejoin="round" stroke="#757575"/><path fill="url(#id16)" d="M14.87481569129325 39.755499635 Q15.249878983375044 39.705218110000004 15.643082626648805 39.6715 Q15.651707972405397 39.74199942 15.651707972405397 39.740999970000004 Q15.651707972405397 40.5730007 14.623518718552255 40.5730007 Q13.884938348283226 40.5730007 13.652259920967984 40.00050238 Q14.255545274021186 39.836996825 14.875391488744203 39.75550345 L14.87481569129325 39.755499635z" stroke="none"/><path fill="#616672" fill-opacity="1.0" d="M15.537272642536426 39.58150075 Q15.537272642536426 40.4145009 14.623517970987402 40.4145009 Q13.710913859250487 40.4145009 13.710913859250487 39.58150075 Q13.710913859250487 38.7495 14.623517970987402 38.7495 Q15.537272642536426 38.7495 15.537272642536426 39.58150075 L15.537272642536426 39.58150075z" stroke="none"/><path fill="#878da0" fill-opacity="1.0" d="M15.343480715910493 39.581499400000006 Q15.343480715910493 40.276998850000005 14.623517740967447 40.276998850000005 Q13.905280145702656 40.276998850000005 13.905280145702656 39.581499400000006 Q13.905280145702656 38.886 14.623517740967447 38.886 Q15.343480715910493 38.886 15.343480715910493 39.581499400000006 L15.343480715910493 39.581499400000006z" stroke="none"/><path fill="#e1e1e5" fill-opacity="1.0" d="M14.702300150413137 39.070997565 Q14.913371176016625 39.070997565 15.085283547071207 39.1834968 Q14.898607977795749 38.971495 14.62294297860629 38.971495 Q14.009939800022881 38.971495 14.009939800022881 39.5809959 Q14.009939800022881 39.60013805 14.019141028337808 39.6629966 Q14.092747558671276 39.070997565 14.702300150413137 39.070997565 L14.702300150413137 39.070997565z" stroke="none"/></g><g transform="translate(719.96775 693.0)"><path fill="#828999" fill-opacity="1.0" d="M-0.07533154082969816 12.8015 L16.75580357545339 15.2265002 L16.75580357545339 41.357501500000005 L-0.07533154082969816 38.485 L-0.07533154082969816 12.8015 L-0.07533154082969816 12.8015z" stroke="none"/><path fill="#757a8a" fill-opacity="1.0" d="M32.5311465315561 5.304 L16.44642674248168 15.1815005 L16.755803638708876 41.242000000000004 L32.564498274850166 30.991999999999997 L32.5311465315561 5.304500679 L32.5311465315561 5.304z" stroke="none"/><path fill="#6d7384" fill-opacity="1.0" d="M32.564499999999825 28.35 L16.82653471719428 38.729 L0.0 35.7485005 L0.0 36.502502 L16.823084417877677 39.567001000000005 L32.68296027653658 29.35300025 L32.564499999999825 28.35 L32.564499999999825 28.35z" stroke="none"/><path fill="none" d="M16.426299996468153 15.210499500000001 L0.0 12.653500000000001 L0.0 38.391503 L16.82653471719428 41.3720025 L32.564498849900055 30.992001000000002 L32.564498849900055 5.272 L16.426299996468153 15.210499500000001 L16.426299996468153 15.210499500000001z" stroke-width="1.0" stroke-linejoin="round" stroke="#757575"/><path fill="#828999" fill-opacity="1.0" d="M-0.07533154082969816 10.045 L16.75580357545339 12.831000249999999 L16.75580357545339 38.5999985 L-0.07533154082969816 35.729 L-0.07533154082969816 10.045 L-0.07533154082969816 10.045z" stroke="none"/><path fill="#757a8a" fill-opacity="1.0" d="M32.5311465315561 2.548 L16.44642674248168 12.425 L16.755803638708876 38.487 L32.56450057504971 28.235 L32.5311465315561 2.548 L32.5311465315561 2.548z" stroke="none"/><path fill="#949ba8" fill-opacity="1.0" d="M32.34138238084339 2.548 L16.75580416775477 12.6305 L0.04485447766674295 9.894 L16.236534120605786 0.0 L32.34138238084339 2.548 L32.34138238084339 2.548z" stroke="none"/><path fill="#9ea4ad" fill-opacity="1.0" d="M17.34983011354597 12.888 L32.472492018223704 2.7960001 L32.33390499567342 2.475 L16.73625188507646 12.157501 Q16.52405847710528 12.2954995 16.19685509191395 12.2410005 Q16.124073328029723 12.229135 13.576820851560083 11.860195 Q11.54053930228322 11.5652635 8.019070661675071 11.0560625 Q6.6354391053788335 10.855991 5.06898826434333 10.62956 Q3.835484981811419 10.4512575 2.5010000640307837 10.258397500000001 Q1.513657811192137 10.1157095 0.6872790370817036 9.9963035 Q0.24976932971657498 9.9330865 0.0 9.8970005 Q0.2526715489867369 10.2047185 0.6951747020378215 10.277801 Q1.580304367841557 10.423986 2.5293390974677155 10.5807815 Q3.8578147439385977 10.800267999999999 5.125453562759336 11.009808999999999 Q6.709828708744601 11.271707 8.106478244362386 11.502749999999999 Q11.662084721458907 12.090942 13.715100797471187 12.4318445 Q16.28117120641359 12.8579385 16.338892413780837 12.871 Q16.506231930636158 12.908999999999999 16.54591037277711 13.098500999999999 L16.54591037277711 38.5330025 Q17.165815300093502 38.4195 17.165815300093502 37.861000000000004 Q17.165815300093502 37.3261275 17.16604992044703 35.88133 Q17.16614422862835 35.30232 17.166304092496688 34.39855 Q17.16637884898188 33.978825 17.166454755566843 33.5591 Q17.166534687501013 33.111488 17.16661461943518 32.663875 Q17.166818762144747 31.52571 17.16695562401764 30.734857 Q17.16714826572948 29.623230000000003 17.167301228999186 28.669046 Q17.167684212223328 26.2795175 17.167900430980502 24.35725 Q17.168162078678677 22.016620000000003 17.16820175712082 20.18889 Q17.168246611011934 18.091821500000002 17.16799933956091 16.624374 Q17.16741968927572 13.203472 17.1652402502074 13.1485 Q17.158340226624077 12.968499999999999 17.34925621375964 12.888 L17.34983011354597 12.888z" stroke="none"/><path fill="none" d="M1.7734538487347378 8.8405 L1.7734538487347378 8.8405z" stroke-width="1.0" stroke-linejoin="round" stroke="#aaaaaa"/><path fill="none" d="M18.438974597820806 11.528 L18.438974597820806 11.528z" stroke-width="1.0" stroke-linejoin="round" stroke="#aaaaaa"/><path fill="none" d="M18.438974597820806 21.2835 L18.438974597820806 21.2835z" stroke-width="1.0" stroke-linejoin="round" stroke="#757575"/><path fill="#6d7384" fill-opacity="1.0" d="M32.564499999999825 19.477500907348652 L16.82653471719428 29.856001 L0.0 26.876499000000003 L0.0 27.630499 L16.823084417877677 30.6949995 L32.68296027653658 20.48049925 L32.564498849900055 19.477499 L32.564499999999825 19.477500907348652z" stroke="none"/><path fill="none" d="M0.0 26.876499000000003 L16.82653471719428 29.855999000000004 L32.564498849900055 19.477499" stroke-width="1.0" stroke-linejoin="round" stroke="#757575"/><path fill="#6d7384" fill-opacity="1.0" d="M32.564499999999825 10.83800040734865 L16.82653471719428 21.217501 L0.0 18.2369995 L0.0 18.991498999999997 L16.823084417877677 22.0549985 L32.68296027653658 11.840998749999999 L32.564498849900055 10.8379985 L32.564499999999825 10.83800040734865z" stroke="none"/><path fill="none" d="M0.0 18.2369995 L16.82653471719428 21.2169995 L32.564498849900055 10.8379995" stroke-width="1.0" stroke-linejoin="round" stroke="#757575"/><path fill="none" d="M16.426299996468153 0.0 L0.0 9.897 L0.0 35.634 L16.82653471719428 38.6145 L32.564498849900055 28.234497 L32.564498849900055 2.516 L16.426299996468153 0.0 L16.426299996468153 0.0z" stroke-width="1.0" stroke-linejoin="round" stroke="#757575"/><path fill="url(#id17)" d="M14.87481569129325 39.755499635 Q15.249878983375044 39.705218110000004 15.643082626648805 39.6715 Q15.651707972405397 39.74199942 15.651707972405397 39.740999970000004 Q15.651707972405397 40.5730007 14.623518718552255 40.5730007 Q13.884938348283226 40.5730007 13.652259920967984 40.00050238 Q14.255545274021186 39.836996825 14.875391488744203 39.75550345 L14.87481569129325 39.755499635z" stroke="none"/><path fill="#616672" fill-opacity="1.0" d="M15.537272642536426 39.58150075 Q15.537272642536426 40.4145009 14.623517970987402 40.4145009 Q13.710913859250487 40.4145009 13.710913859250487 39.58150075 Q13.710913859250487 38.7495 14.623517970987402 38.7495 Q15.537272642536426 38.7495 15.537272642536426 39.58150075 L15.537272642536426 39.58150075z" stroke="none"/><path fill="#878da0" fill-opacity="1.0" d="M15.343480715910493 39.581499400000006 Q15.343480715910493 40.276998850000005 14.623517740967447 40.276998850000005 Q13.905280145702656 40.276998850000005 13.905280145702656 39.581499400000006 Q13.905280145702656 38.886 14.623517740967447 38.886 Q15.343480715910493 38.886 15.343480715910493 39.581499400000006 L15.343480715910493 39.581499400000006z" stroke="none"/><path fill="#e1e1e5" fill-opacity="1.0" d="M14.702300150413137 39.070997565 Q14.913371176016625 39.070997565 15.085283547071207 39.1834968 Q14.898607977795749 38.971495 14.62294297860629 38.971495 Q14.009939800022881 38.971495 14.009939800022881 39.5809959 Q14.009939800022881 39.60013805 14.019141028337808 39.6629966 Q14.092747558671276 39.070997565 14.702300150413137 39.070997565 L14.702300150413137 39.070997565z" stroke="none"/></g><g transform="translate(678.6855000000003 693.0)"><path fill="#828999" fill-opacity="1.0" d="M-0.07533154082969816 12.8015 L16.75580357545339 15.2265002 L16.75580357545339 41.357501500000005 L-0.07533154082969816 38.485 L-0.07533154082969816 12.8015 L-0.07533154082969816 12.8015z" stroke="none"/><path fill="#757a8a" fill-opacity="1.0" d="M32.5311465315561 5.304 L16.44642674248168 15.1815005 L16.755803638708876 41.242000000000004 L32.564498274850166 30.991999999999997 L32.5311465315561 5.304500679 L32.5311465315561 5.304z" stroke="none"/><path fill="#6d7384" fill-opacity="1.0" d="M32.564499999999825 28.35 L16.82653471719428 38.729 L0.0 35.7485005 L0.0 36.502502 L16.823084417877677 39.567001000000005 L32.68296027653658 29.35300025 L32.564499999999825 28.35 L32.564499999999825 28.35z" stroke="none"/><path fill="none" d="M16.426299996468153 15.210499500000001 L0.0 12.653500000000001 L0.0 38.391503 L16.82653471719428 41.3720025 L32.564498849900055 30.992001000000002 L32.564498849900055 5.272 L16.426299996468153 15.210499500000001 L16.426299996468153 15.210499500000001z" stroke-width="1.0" stroke-linejoin="round" stroke="#757575"/><path fill="#828999" fill-opacity="1.0" d="M-0.07533154082969816 10.045 L16.75580357545339 12.831000249999999 L16.75580357545339 38.5999985 L-0.07533154082969816 35.729 L-0.07533154082969816 10.045 L-0.07533154082969816 10.045z" stroke="none"/><path fill="#757a8a" fill-opacity="1.0" d="M32.5311465315561 2.548 L16.44642674248168 12.425 L16.755803638708876 38.487 L32.56450057504971 28.235 L32.5311465315561 2.548 L32.5311465315561 2.548z" stroke="none"/><path fill="#949ba8" fill-opacity="1.0" d="M32.34138238084339 2.548 L16.75580416775477 12.6305 L0.04485447766674295 9.894 L16.236534120605786 0.0 L32.34138238084339 2.548 L32.34138238084339 2.548z" stroke="none"/><path fill="#9ea4ad" fill-opacity="1.0" d="M17.34983011354597 12.888 L32.472492018223704 2.7960001 L32.33390499567342 2.475 L16.73625188507646 12.157501 Q16.52405847710528 12.2954995 16.19685509191395 12.2410005 Q16.124073328029723 12.229135 13.576820851560083 11.860195 Q11.54053930228322 11.5652635 8.019070661675071 11.0560625 Q6.6354391053788335 10.855991 5.06898826434333 10.62956 Q3.835484981811419 10.4512575 2.5010000640307837 10.258397500000001 Q1.513657811192137 10.1157095 0.6872790370817036 9.9963035 Q0.24976932971657498 9.9330865 0.0 9.8970005 Q0.2526715489867369 10.2047185 0.6951747020378215 10.277801 Q1.580304367841557 10.423986 2.5293390974677155 10.5807815 Q3.8578147439385977 10.800267999999999 5.125453562759336 11.009808999999999 Q6.709828708744601 11.271707 8.106478244362386 11.502749999999999 Q11.662084721458907 12.090942 13.715100797471187 12.4318445 Q16.28117120641359 12.8579385 16.338892413780837 12.871 Q16.506231930636158 12.908999999999999 16.54591037277711 13.098500999999999 L16.54591037277711 38.5330025 Q17.165815300093502 38.4195 17.165815300093502 37.861000000000004 Q17.165815300093502 37.3261275 17.16604992044703 35.88133 Q17.16614422862835 35.30232 17.166304092496688 34.39855 Q17.16637884898188 33.978825 17.166454755566843 33.5591 Q17.166534687501013 33.111488 17.16661461943518 32.663875 Q17.166818762144747 31.52571 17.16695562401764 30.734857 Q17.16714826572948 29.623230000000003 17.167301228999186 28.669046 Q17.167684212223328 26.2795175 17.167900430980502 24.35725 Q17.168162078678677 22.016620000000003 17.16820175712082 20.18889 Q17.168246611011934 18.091821500000002 17.16799933956091 16.624374 Q17.16741968927572 13.203472 17.1652402502074 13.1485 Q17.158340226624077 12.968499999999999 17.34925621375964 12.888 L17.34983011354597 12.888z" stroke="none"/><path fill="none" d="M1.7734538487347378 8.8405 L1.7734538487347378 8.8405z" stroke-width="1.0" stroke-linejoin="round" stroke="#aaaaaa"/><path fill="none" d="M18.438974597820806 11.528 L18.438974597820806 11.528z" stroke-width="1.0" stroke-linejoin="round" stroke="#aaaaaa"/><path fill="none" d="M18.438974597820806 21.2835 L18.438974597820806 21.2835z" stroke-width="1.0" stroke-linejoin="round" stroke="#757575"/><path fill="#6d7384" fill-opacity="1.0" d="M32.564499999999825 19.477500907348652 L16.82653471719428 29.856001 L0.0 26.876499000000003 L0.0 27.630499 L16.823084417877677 30.6949995 L32.68296027653658 20.48049925 L32.564498849900055 19.477499 L32.564499999999825 19.477500907348652z" stroke="none"/><path fill="none" d="M0.0 26.876499000000003 L16.82653471719428 29.855999000000004 L32.564498849900055 19.477499" stroke-width="1.0" stroke-linejoin="round" stroke="#757575"/><path fill="#6d7384" fill-opacity="1.0" d="M32.564499999999825 10.83800040734865 L16.82653471719428 21.217501 L0.0 18.2369995 L0.0 18.991498999999997 L16.823084417877677 22.0549985 L32.68296027653658 11.840998749999999 L32.564498849900055 10.8379985 L32.564499999999825 10.83800040734865z" stroke="none"/><path fill="none" d="M0.0 18.2369995 L16.82653471719428 21.2169995 L32.564498849900055 10.8379995" stroke-width="1.0" stroke-linejoin="round" stroke="#757575"/><path fill="none" d="M16.426299996468153 0.0 L0.0 9.897 L0.0 35.634 L16.82653471719428 38.6145 L32.564498849900055 28.234497 L32.564498849900055 2.516 L16.426299996468153 0.0 L16.426299996468153 0.0z" stroke-width="1.0" stroke-linejoin="round" stroke="#757575"/><path fill="url(#id18)" d="M14.87481569129325 39.755499635 Q15.249878983375044 39.705218110000004 15.643082626648805 39.6715 Q15.651707972405397 39.74199942 15.651707972405397 39.740999970000004 Q15.651707972405397 40.5730007 14.623518718552255 40.5730007 Q13.884938348283226 40.5730007 13.652259920967984 40.00050238 Q14.255545274021186 39.836996825 14.875391488744203 39.75550345 L14.87481569129325 39.755499635z" stroke="none"/><path fill="#616672" fill-opacity="1.0" d="M15.537272642536426 39.58150075 Q15.537272642536426 40.4145009 14.623517970987402 40.4145009 Q13.710913859250487 40.4145009 13.710913859250487 39.58150075 Q13.710913859250487 38.7495 14.623517970987402 38.7495 Q15.537272642536426 38.7495 15.537272642536426 39.58150075 L15.537272642536426 39.58150075z" stroke="none"/><path fill="#878da0" fill-opacity="1.0" d="M15.343480715910493 39.581499400000006 Q15.343480715910493 40.276998850000005 14.623517740967447 40.276998850000005 Q13.905280145702656 40.276998850000005 13.905280145702656 39.581499400000006 Q13.905280145702656 38.886 14.623517740967447 38.886 Q15.343480715910493 38.886 15.343480715910493 39.581499400000006 L15.343480715910493 39.581499400000006z" stroke="none"/><path fill="#e1e1e5" fill-opacity="1.0" d="M14.702300150413137 39.070997565 Q14.913371176016625 39.070997565 15.085283547071207 39.1834968 Q14.898607977795749 38.971495 14.62294297860629 38.971495 Q14.009939800022881 38.971495 14.009939800022881 39.5809959 Q14.009939800022881 39.60013805 14.019141028337808 39.6629966 Q14.092747558671276 39.070997565 14.702300150413137 39.070997565 L14.702300150413137 39.070997565z" stroke="none"/></g><g transform="translate(636.25 693.0)"><path fill="#828999" fill-opacity="1.0" d="M-0.07533154082969816 12.8015 L16.75580357545339 15.2265002 L16.75580357545339 41.357501500000005 L-0.07533154082969816 38.485 L-0.07533154082969816 12.8015 L-0.07533154082969816 12.8015z" stroke="none"/><path fill="#757a8a" fill-opacity="1.0" d="M32.5311465315561 5.304 L16.44642674248168 15.1815005 L16.755803638708876 41.242000000000004 L32.564498274850166 30.991999999999997 L32.5311465315561 5.304500679 L32.5311465315561 5.304z" stroke="none"/><path fill="#6d7384" fill-opacity="1.0" d="M32.564499999999825 28.35 L16.82653471719428 38.729 L0.0 35.7485005 L0.0 36.502502 L16.823084417877677 39.567001000000005 L32.68296027653658 29.35300025 L32.564499999999825 28.35 L32.564499999999825 28.35z" stroke="none"/><path fill="none" d="M16.426299996468153 15.210499500000001 L0.0 12.653500000000001 L0.0 38.391503 L16.82653471719428 41.3720025 L32.564498849900055 30.992001000000002 L32.564498849900055 5.272 L16.426299996468153 15.210499500000001 L16.426299996468153 15.210499500000001z" stroke-width="1.0" stroke-linejoin="round" stroke="#757575"/><path fill="#828999" fill-opacity="1.0" d="M-0.07533154082969816 10.045 L16.75580357545339 12.831000249999999 L16.75580357545339 38.5999985 L-0.07533154082969816 35.729 L-0.07533154082969816 10.045 L-0.07533154082969816 10.045z" stroke="none"/><path fill="#757a8a" fill-opacity="1.0" d="M32.5311465315561 2.548 L16.44642674248168 12.425 L16.755803638708876 38.487 L32.56450057504971 28.235 L32.5311465315561 2.548 L32.5311465315561 2.548z" stroke="none"/><path fill="#949ba8" fill-opacity="1.0" d="M32.34138238084339 2.548 L16.75580416775477 12.6305 L0.04485447766674295 9.894 L16.236534120605786 0.0 L32.34138238084339 2.548 L32.34138238084339 2.548z" stroke="none"/><path fill="#9ea4ad" fill-opacity="1.0" d="M17.34983011354597 12.888 L32.472492018223704 2.7960001 L32.33390499567342 2.475 L16.73625188507646 12.157501 Q16.52405847710528 12.2954995 16.19685509191395 12.2410005 Q16.124073328029723 12.229135 13.576820851560083 11.860195 Q11.54053930228322 11.5652635 8.019070661675071 11.0560625 Q6.6354391053788335 10.855991 5.06898826434333 10.62956 Q3.835484981811419 10.4512575 2.5010000640307837 10.258397500000001 Q1.513657811192137 10.1157095 0.6872790370817036 9.9963035 Q0.24976932971657498 9.9330865 0.0 9.8970005 Q0.2526715489867369 10.2047185 0.6951747020378215 10.277801 Q1.580304367841557 10.423986 2.5293390974677155 10.5807815 Q3.8578147439385977 10.800267999999999 5.125453562759336 11.009808999999999 Q6.709828708744601 11.271707 8.106478244362386 11.502749999999999 Q11.662084721458907 12.090942 13.715100797471187 12.4318445 Q16.28117120641359 12.8579385 16.338892413780837 12.871 Q16.506231930636158 12.908999999999999 16.54591037277711 13.098500999999999 L16.54591037277711 38.5330025 Q17.165815300093502 38.4195 17.165815300093502 37.861000000000004 Q17.165815300093502 37.3261275 17.16604992044703 35.88133 Q17.16614422862835 35.30232 17.166304092496688 34.39855 Q17.16637884898188 33.978825 17.166454755566843 33.5591 Q17.166534687501013 33.111488 17.16661461943518 32.663875 Q17.166818762144747 31.52571 17.16695562401764 30.734857 Q17.16714826572948 29.623230000000003 17.167301228999186 28.669046 Q17.167684212223328 26.2795175 17.167900430980502 24.35725 Q17.168162078678677 22.016620000000003 17.16820175712082 20.18889 Q17.168246611011934 18.091821500000002 17.16799933956091 16.624374 Q17.16741968927572 13.203472 17.1652402502074 13.1485 Q17.158340226624077 12.968499999999999 17.34925621375964 12.888 L17.34983011354597 12.888z" stroke="none"/><path fill="none" d="M1.7734538487347378 8.8405 L1.7734538487347378 8.8405z" stroke-width="1.0" stroke-linejoin="round" stroke="#aaaaaa"/><path fill="none" d="M18.438974597820806 11.528 L18.438974597820806 11.528z" stroke-width="1.0" stroke-linejoin="round" stroke="#aaaaaa"/><path fill="none" d="M18.438974597820806 21.2835 L18.438974597820806 21.2835z" stroke-width="1.0" stroke-linejoin="round" stroke="#757575"/><path fill="#6d7384" fill-opacity="1.0" d="M32.564499999999825 19.477500907348652 L16.82653471719428 29.856001 L0.0 26.876499000000003 L0.0 27.630499 L16.823084417877677 30.6949995 L32.68296027653658 20.48049925 L32.564498849900055 19.477499 L32.564499999999825 19.477500907348652z" stroke="none"/><path fill="none" d="M0.0 26.876499000000003 L16.82653471719428 29.855999000000004 L32.564498849900055 19.477499" stroke-width="1.0" stroke-linejoin="round" stroke="#757575"/><path fill="#6d7384" fill-opacity="1.0" d="M32.564499999999825 10.83800040734865 L16.82653471719428 21.217501 L0.0 18.2369995 L0.0 18.991498999999997 L16.823084417877677 22.0549985 L32.68296027653658 11.840998749999999 L32.564498849900055 10.8379985 L32.564499999999825 10.83800040734865z" stroke="none"/><path fill="none" d="M0.0 18.2369995 L16.82653471719428 21.2169995 L32.564498849900055 10.8379995" stroke-width="1.0" stroke-linejoin="round" stroke="#757575"/><path fill="none" d="M16.426299996468153 0.0 L0.0 9.897 L0.0 35.634 L16.82653471719428 38.6145 L32.564498849900055 28.234497 L32.564498849900055 2.516 L16.426299996468153 0.0 L16.426299996468153 0.0z" stroke-width="1.0" stroke-linejoin="round" stroke="#757575"/><path fill="url(#id19)" d="M14.87481569129325 39.755499635 Q15.249878983375044 39.705218110000004 15.643082626648805 39.6715 Q15.651707972405397 39.74199942 15.651707972405397 39.740999970000004 Q15.651707972405397 40.5730007 14.623518718552255 40.5730007 Q13.884938348283226 40.5730007 13.652259920967984 40.00050238 Q14.255545274021186 39.836996825 14.875391488744203 39.75550345 L14.87481569129325 39.755499635z" stroke="none"/><path fill="#616672" fill-opacity="1.0" d="M15.537272642536426 39.58150075 Q15.537272642536426 40.4145009 14.623517970987402 40.4145009 Q13.710913859250487 40.4145009 13.710913859250487 39.58150075 Q13.710913859250487 38.7495 14.623517970987402 38.7495 Q15.537272642536426 38.7495 15.537272642536426 39.58150075 L15.537272642536426 39.58150075z" stroke="none"/><path fill="#878da0" fill-opacity="1.0" d="M15.343480715910493 39.581499400000006 Q15.343480715910493 40.276998850000005 14.623517740967447 40.276998850000005 Q13.905280145702656 40.276998850000005 13.905280145702656 39.581499400000006 Q13.905280145702656 38.886 14.623517740967447 38.886 Q15.343480715910493 38.886 15.343480715910493 39.581499400000006 L15.343480715910493 39.581499400000006z" stroke="none"/><path fill="#e1e1e5" fill-opacity="1.0" d="M14.702300150413137 39.070997565 Q14.913371176016625 39.070997565 15.085283547071207 39.1834968 Q14.898607977795749 38.971495 14.62294297860629 38.971495 Q14.009939800022881 38.971495 14.009939800022881 39.5809959 Q14.009939800022881 39.60013805 14.019141028337808 39.6629966 Q14.092747558671276 39.070997565 14.702300150413137 39.070997565 L14.702300150413137 39.070997565z" stroke="none"/></g><g transform="translate(1209.333333333333 283.0)"><path fill="#ffffff" fill-opacity="1.0" d="M311.5 50.0 L0.0 50.0 L0.0 0.0 L311.5 0.0 L311.5 50.0z" stroke-width="2.0" stroke-linejoin="round" stroke="#000000"/><g transform="translate(1.0 1.0)"><clipPath id="id20"><path d="M0 0 L309.5 0 L309.5 48.0 L0 48.0z"/></clipPath><text font-size="12" clip-path="url(#id20)" text-decoration="none" fill="#000000" font-family="Arial,Arial" font-style="normal" font-weight="normal"><tspan x="103.5" xml:space="preserve" y="28.25" textLength="102.0">FAULT MANAGER</tspan></text></g></g><g transform="translate(1209.333333333333 452.0)"><path fill="#ffffff" fill-opacity="1.0" d="M311.5 50.0 L0.0 50.0 L0.0 0.0 L311.5 0.0 L311.5 50.0z" stroke-width="2.0" stroke-linejoin="round" stroke="#000000"/><g transform="translate(1.0 1.0)"><clipPath id="id21"><path d="M0 0 L309.5 0 L309.5 48.0 L0 48.0z"/></clipPath><text font-size="12" clip-path="url(#id21)" text-decoration="none" fill="#000000" font-family="Arial,Arial" font-style="normal" font-weight="normal"><tspan x="99.5" xml:space="preserve" y="28.25" textLength="110.0">SYSTEM MONITOR</tspan></text></g></g><g transform="translate(1209.333333333333 680.0)"><path fill="#ffffff" fill-opacity="1.0" d="M311.5 50.0 L0.0 50.0 L0.0 0.0 L311.5 0.0 L311.5 50.0z" stroke-width="1.0" stroke-linejoin="round" stroke="#000000"/><g transform="translate(1.0 1.0)"><clipPath id="id22"><path d="M0 0 L309.5 0 L309.5 48.0 L0 48.0z"/></clipPath><text font-size="12" clip-path="url(#id22)" text-decoration="none" fill="#000000" font-family="Arial,Arial" font-style="normal" font-weight="normal"><tspan x="84.5" xml:space="preserve" y="28.25" textLength="140.0">ALLOCATION MANAGER</tspan></text></g></g><path fill="none" marker-end="url(#id23)" d="M592.5000000000001 100.0 L592.5 252.0" stroke-width="1.0" stroke-linejoin="round" stroke="#000000"/><g transform="translate(767.5 278.0)"><path fill="#ffffff" fill-opacity="1.0" d="M5.0 0.0 L50.0 0.0 L45.0 5.0 L0.0 5.0 L5.0 0.0z" stroke-width="1.0" stroke-linejoin="round" stroke="#000000"/><path fill="#ffffff" fill-opacity="1.0" d="M45.0 5.0 L50.0 0.0 L50.0 45.0 L45.0 50.0 L45.0 5.0z" stroke-width="1.0" stroke-linejoin="round" stroke="#000000"/><path fill="#ffffff" fill-opacity="1.0" d="M0.0 5.0 L45.0 5.0 L45.0 50.0 L0.0 50.0 L0.0 5.0z" stroke-width="1.0" stroke-linejoin="round" stroke="#000000"/><g transform="translate(0.0 5.0)"><clipPath id="id24"><path d="M0 0 L45.0 0 L45.0 45.0 L0 45.0z"/></clipPath><text font-size="12" clip-path="url(#id24)" text-decoration="none" fill="#000000" font-family="Arial,Arial" font-style="normal" font-weight="normal"/></g></g><g transform="translate(592.5 146.0)"><path fill="#ffffff" fill-opacity="1.0" d="M5.0 0.0 L50.0 0.0 L45.0 5.0 L0.0 5.0 L5.0 0.0z" stroke-width="1.0" stroke-linejoin="round" stroke="#000000"/><path fill="#ffffff" fill-opacity="1.0" d="M45.0 5.0 L50.0 0.0 L50.0 45.0 L45.0 50.0 L45.0 5.0z" stroke-width="1.0" stroke-linejoin="round" stroke="#000000"/><path fill="#ffffff" fill-opacity="1.0" d="M0.0 5.0 L45.0 5.0 L45.0 50.0 L0.0 50.0 L0.0 5.0z" stroke-width="1.0" stroke-linejoin="round" stroke="#000000"/><g transform="translate(0.0 5.0)"><clipPath id="id25"><path d="M0 0 L45.0 0 L45.0 45.0 L0 45.0z"/></clipPath><text font-size="12" clip-path="url(#id25)" text-decoration="none" fill="#000000" font-family="Arial,Arial" font-style="normal" font-weight="normal"><tspan x="10.5" xml:space="preserve" y="26.75" textLength="23.5">JOB</tspan></text></g></g><g transform="translate(256.0 232.0)"><clipPath id="id26"><path d="M0 0 L150.0 0 L150.0 40.0 L0 40.0z"/></clipPath><text font-size="12" clip-path="url(#id26)" text-decoration="none" fill="#000000" font-family="Arial,Arial" font-style="normal" font-weight="normal"><tspan x="2.0" xml:space="preserve" y="13.0" textLength="131.0">JOB QUEUE (SORTED)</tspan></text></g><g transform="translate(603.6855000000003 131.0)"><clipPath id="id27"><path d="M0 0 L150.0 0 L150.0 40.0 L0 40.0z"/></clipPath><text font-size="12" clip-path="url(#id27)" text-decoration="none" fill="#000000" font-family="Arial,Arial" font-style="normal" font-weight="normal"><tspan x="2.0" xml:space="preserve" y="13.0" textLength="57.0">PRIORITY</tspan></text></g><path fill="none" marker-end="url(#id28)" d="M592.5 502.0 L592.4999999999998 630.0" stroke-width="1.0" stroke-linejoin="round" stroke="#000000"/><path fill="none" marker-end="url(#id29)" d="M1209.333333333333 477.0 L748.25 477.0" stroke-width="1.0" stroke-linejoin="round" stroke="#000000"/><g transform="translate(897.6478333333332 457.0)"><clipPath id="id30"><path d="M0 0 L173.16666666666674 0 L173.16666666666674 40.0 L0 40.0z"/></clipPath><text font-size="12" clip-path="url(#id30)" text-decoration="none" fill="#000000" font-family="Arial,Arial" font-style="normal" font-weight="normal"><tspan x="2.0" xml:space="preserve" y="13.0" textLength="150.0">RESOURCE AVAILABILITY</tspan></text></g><g transform="translate(567.5 532.6666666666666)"><path fill="#ffffff" fill-opacity="1.0" d="M5.0 0.0 L50.0 0.0 L45.0 5.0 L0.0 5.0 L5.0 0.0z" stroke-width="1.0" stroke-linejoin="round" stroke="#000000"/><path fill="#ffffff" fill-opacity="1.0" d="M45.0 5.0 L50.0 0.0 L50.0 45.0 L45.0 50.0 L45.0 5.0z" stroke-width="1.0" stroke-linejoin="round" stroke="#000000"/><path fill="#ffffff" fill-opacity="1.0" d="M0.0 5.0 L45.0 5.0 L45.0 50.0 L0.0 50.0 L0.0 5.0z" stroke-width="1.0" stroke-linejoin="round" stroke="#000000"/><g transform="translate(0.0 5.0)"><clipPath id="id31"><path d="M0 0 L45.0 0 L45.0 45.0 L0 45.0z"/></clipPath><text font-size="12" clip-path="url(#id31)" text-decoration="none" fill="#000000" font-family="Arial,Arial" font-style="normal" font-weight="normal"><tspan x="10.5" xml:space="preserve" y="26.75" textLength="23.5">JOB</tspan></text></g></g><path fill="none" marker-end="url(#id32)" d="M592.5 365.0 L670.3749999999999 452.0" stroke-width="1.0" stroke-linejoin="round" stroke="#000000"/><path fill="none" marker-end="url(#id33)" d="M514.625 452.0 L592.5 365.0" stroke-width="1.0" stroke-linejoin="round" stroke="#000000"/><g transform="translate(492.5 375.175144212722) rotate(315.0 75.0 20.0)"><clipPath id="id34"><path d="M0 0 L150.0 0 L150.0 40.0 L0 40.0z"/></clipPath><text font-size="12" clip-path="url(#id34)" text-decoration="none" fill="#000000" font-family="Arial,Arial" font-style="normal" font-weight="normal"><tspan x="2.0" xml:space="preserve" y="13.0" textLength="85.0">REQUEST JOB</tspan></text></g><g transform="translate(609.675144212722 379.99999999999994)"><path fill="#ffffff" fill-opacity="1.0" d="M5.0 0.0 L50.0 0.0 L45.0 5.0 L0.0 5.0 L5.0 0.0z" stroke-width="1.0" stroke-linejoin="round" stroke="#000000"/><path fill="#ffffff" fill-opacity="1.0" d="M45.0 5.0 L50.0 0.0 L50.0 45.0 L45.0 50.0 L45.0 5.0z" stroke-width="1.0" stroke-linejoin="round" stroke="#000000"/><path fill="#ffffff" fill-opacity="1.0" d="M0.0 5.0 L45.0 5.0 L45.0 50.0 L0.0 50.0 L0.0 5.0z" stroke-width="1.0" stroke-linejoin="round" stroke="#000000"/><g transform="translate(0.0 5.0)"><clipPath id="id35"><path d="M0 0 L45.0 0 L45.0 45.0 L0 45.0z"/></clipPath><text font-size="12" clip-path="url(#id35)" text-decoration="none" fill="#000000" font-family="Arial,Arial" font-style="normal" font-weight="normal"><tspan x="10.5" xml:space="preserve" y="26.75" textLength="23.5">JOB</tspan></text></g></g><path fill="none" marker-end="url(#id36)" d="M1365.083333333333 452.0 L1365.083333333333 333.0" stroke-width="1.0" stroke-linejoin="round" stroke="#000000"/><g transform="translate(1290.083333333333 345.5) rotate(270.0 75.0 20.0)"><clipPath id="id37"><path d="M0 0 L150.0 0 L150.0 40.0 L0 40.0z"/></clipPath><text font-size="12" clip-path="url(#id37)" text-decoration="none" fill="#000000" font-family="Arial,Arial" font-style="normal" font-weight="normal"><tspan x="2.0" xml:space="preserve" y="13.0" textLength="85.5">JOB FAILURES</tspan></text></g><g transform="translate(1530.3370303493937 553.6703636827275) rotate(90.0 106.3296363172725 20.0)"><clipPath id="id38"><path d="M0 0 L212.659272634545 0 L212.659272634545 40.0 L0 40.0z"/></clipPath><text font-size="12" clip-path="url(#id38)" text-decoration="none" fill="#000000" font-family="Arial,Arial" font-style="normal" font-weight="normal"><tspan x="2.0" xml:space="preserve" y="13.0" textLength="182.5">KILL FAILED VIRTUAL MACHINE</tspan></text></g><path fill="none" marker-end="url(#id39)" d="M1209.333333333333 308.0 L925.1250000000001 308.5" stroke-width="1.0" stroke-linejoin="round" stroke="#000000"/><g transform="translate(975.1478333333332 288.0)"><clipPath id="id40"><path d="M0 0 L191.33333333333326 0 L191.33333333333326 40.0 L0 40.0z"/></clipPath><text font-size="12" clip-path="url(#id40)" text-decoration="none" fill="#000000" font-family="Arial,Arial" font-style="normal" font-weight="normal"><tspan x="2.0" xml:space="preserve" y="13.0" textLength="171.5">FAILED JOB BACK TO QUEUE</tspan></text></g><g transform="translate(1045.8145 308.0)"><path fill="#ffffff" fill-opacity="1.0" d="M5.0 0.0 L55.518833333333305 0.0 L50.518833333333305 5.0 L0.0 5.0 L5.0 0.0z" stroke-width="1.0" stroke-linejoin="round" stroke="#000000"/><path fill="#ffffff" fill-opacity="1.0" d="M50.518833333333305 5.0 L55.518833333333305 0.0 L55.518833333333305 52.5 L50.518833333333305 57.5 L50.518833333333305 5.0z" stroke-width="1.0" stroke-linejoin="round" stroke="#000000"/><path fill="#ffffff" fill-opacity="1.0" d="M0.0 5.0 L50.518833333333305 5.0 L50.518833333333305 57.5 L0.0 57.5 L0.0 5.0z" stroke-width="1.0" stroke-linejoin="round" stroke="#000000"/><g transform="translate(0.0 5.0)"><clipPath id="id41"><path d="M0 0 L50.518833333333305 0 L50.518833333333305 52.5 L0 52.5z"/></clipPath><text font-size="12" clip-path="url(#id41)" text-decoration="none" fill="#000000" font-family="Arial,Arial" font-style="normal" font-weight="normal"><tspan x="4.0" xml:space="preserve" y="23.75" textLength="45.5">FAILED </tspan><tspan x="13.5" xml:space="preserve" y="37.25" textLength="23.5">JOB</tspan></text></g></g><path fill="none" marker-end="url(#id42)" d="M1365.083333333333 502.0 L1365.083333333333 680.0" stroke-width="1.0" stroke-linejoin="round" stroke="#000000"/><g transform="translate(1269.4166666666665 598.0190833333332) rotate(90.0 95.66666666666663 20.0)"><clipPath id="id43"><path d="M0 0 L191.33333333333326 0 L191.33333333333326 40.0 L0 40.0z"/></clipPath><text font-size="12" clip-path="url(#id43)" text-decoration="none" fill="#000000" font-family="Arial,Arial" font-style="normal" font-weight="normal"><tspan x="2.0" xml:space="preserve" y="13.0" textLength="120.5">LOAD INFORMATION</tspan></text></g><path fill="none" marker-end="url(#id44)" d="M1209.333333333333 705.0 L851.5358284675473 704.95" stroke-width="1.0" stroke-linejoin="round" stroke="#000000"/><g transform="translate(975.1478333333332 685.0)"><clipPath id="id45"><path d="M0 0 L173.16666666666674 0 L173.16666666666674 40.0 L0 40.0z"/></clipPath><text font-size="12" clip-path="url(#id45)" text-decoration="none" fill="#000000" font-family="Arial,Arial" font-style="normal" font-weight="normal"><tspan x="2.0" xml:space="preserve" y="14.0" textLength="148.0">ALLOCATE / DEALLOCATE</tspan></text></g><g transform="translate(403.4489166666666 664.95)"><clipPath id="id46"><path d="M0 0 L173.16666666666674 0 L173.16666666666674 40.0 L0 40.0z"/></clipPath><text font-size="12" clip-path="url(#id46)" text-decoration="none" fill="#000000" font-family="Arial,Arial" font-style="normal" font-weight="normal"><tspan x="2.0" xml:space="preserve" y="13.0" textLength="62.0">WORKERS</tspan></text></g><path fill="none" marker-end="url(#id47)" d="M851.5358284675473 667.475 L1209.333333333333 502.0" stroke-width="1.0" stroke-linejoin="round" stroke="#000000"/><g transform="translate(925.2439495543626 568.1972704080521) rotate(334.33187405488326 86.58333333333337 20.0)"><clipPath id="id48"><path d="M0 0 L173.16666666666674 0 L173.16666666666674 40.0 L0 40.0z"/></clipPath><text font-size="12" clip-path="url(#id48)" text-decoration="none" fill="#000000" font-family="Arial,Arial" font-style="normal" font-weight="normal"><tspan x="2.0" xml:space="preserve" y="13.0" textLength="137.5">SYSTEM INFORMATION</tspan></text></g><path fill="none" marker-end="url(#id49)" d="M1365.083333333333 283.0 L1365.0833333333333 203.33" stroke-width="1.0" stroke-linejoin="round" stroke="#000000"/><path fill="none" marker-end="url(#id50)" d="M1520.833333333333 320.5 L1636.4999999999995 320.5 L1636.4999999999995 804.9000000000001 L722.0179142337736 804.9000000000001 L722.0179142337736 779.9000000000001" stroke-width="1.0" stroke-linejoin="round" stroke="#000000"/><g transform="translate(1267.958333333333 226.0)"><clipPath id="id51"><path d="M0 0 L107.33333333333326 0 L107.33333333333326 40.0 L0 40.0z"/></clipPath><text font-size="12" clip-path="url(#id51)" text-decoration="none" fill="#000000" font-family="Arial,Arial" font-style="normal" font-weight="normal"><tspan x="2.0" xml:space="preserve" y="14.0" textLength="53.0">FAILURE </tspan><tspan x="2.0" xml:space="preserve" y="29.0" textLength="81.0">INFORMATION</tspan></text></g><g transform="translate(1341.7448333333332 151.0)"><path fill="url(#id52)" d="M46.677 14.078 L32.562 0.0 L6.19 0.0 Q5.19 0.0 5.19 1.0 L5.19 51.33 Q5.19 52.33 6.19 52.33 L45.677 52.33 Q46.677 52.33 46.677 51.33 L46.677 14.078 L46.677 14.078z" stroke-width="1.0" stroke-linejoin="round" stroke="#000000"/><path fill="#0430ad" fill-opacity="1.0" d="M36.673 18.899 Q36.673 19.899 35.673 19.899 L1.0 19.899 Q0.0 19.899 0.0 18.899 L0.0 7.055 Q0.0 6.055 1.0 6.055 L35.673 6.055 Q36.673 6.055 36.673 7.055 L36.673 18.899999 L36.673 18.899z" stroke-width="1.0" stroke-linejoin="round" stroke="#000000"/><path fill="#ffffff" fill-opacity="1.0" d="M11.109 11.3170008 L12.159999599999999 11.3170008 L12.159999599999999 10.156000500000001 L13.9160002 9.610001 L13.9160002 11.3170008 L15.166 11.3170008 L15.166 12.5670008 L13.9160002 12.5670008 L13.9160002 14.4720005 Q13.9160002 15.4150004 14.629999999999999 15.4150004 Q14.7596662 15.4150004 15.175 15.3450007 L15.2350004 16.506001 Q14.4009254 16.605002 14.114 16.605002 Q12.1299999 16.605002 12.1299999 14.670002400000001 L12.1299999 12.566002300000001 L11.109 12.566002300000001 L11.109 11.316002300000001 L11.109 11.3170008z" stroke="none"/><path fill="#ffffff" fill-opacity="1.0" d="M17.2600005 13.857 L15.64299994 11.317 L17.7560008 11.317 L18.5200007 12.8650003 L19.3240016 11.317 L21.2790015 11.317 L19.662001 13.836999500000001 L21.388001 16.4859997 L19.235001 16.4859997 L18.372 14.8789993 L17.518 16.4859997 L15.504 16.4859997 L17.2600005 13.857 L17.2600005 13.857z" stroke="none"/><path fill="#ffffff" fill-opacity="1.0" d="M21.575 11.3170008 L22.627 11.3170008 L22.627 10.156000500000001 L24.3830006 9.610001 L24.3830006 11.3170008 L25.6330006 11.3170008 L25.6330006 12.5670008 L24.3830006 12.5670008 L24.3830006 14.4720005 Q24.3830006 15.4150004 25.0970013 15.4150004 Q25.225335299999998 15.4150004 25.643000999999998 15.3450007 L25.7030003 16.506001 Q24.8689243 16.605002 24.582 16.605002 Q22.5980007 16.605002 22.5980007 14.670002400000001 L22.5980007 12.566002300000001 L21.576001358 12.566002300000001 L21.576001358 11.316002300000001 L21.575 11.3170008z" stroke="none"/><path fill="#969696" fill-opacity="1.0" d="M11.4179999536743 37.928 L11.4179999536743 38.928 L39.667999 38.928 L39.667999 37.928 L11.417999 37.928 L11.4179999536743 37.928z" stroke="none"/><path fill="#969696" fill-opacity="1.0" d="M11.4179999536743 23.355 L11.4179999536743 24.355 L39.667999 24.355 L39.667999 23.355 L11.417999 23.355 L11.4179999536743 23.355z" stroke="none"/><path fill="#969696" fill-opacity="1.0" d="M11.4179999536743 26.27 L11.4179999536743 27.27 L39.667999 27.27 L39.667999 26.27 L11.417999 26.27 L11.4179999536743 26.27z" stroke="none"/><path fill="#969696" fill-opacity="1.0" d="M11.4179999536743 29.184 L11.4179999536743 30.184 L39.667999 30.184 L39.667999 29.184 L11.417999 29.184 L11.4179999536743 29.184z" stroke="none"/><path fill="#969696" fill-opacity="1.0" d="M11.4179999536743 32.099 L11.4179999536743 33.099 L39.667999 33.099 L39.667999 32.099 L11.417999 32.099 L11.4179999536743 32.099z" stroke="none"/><path fill="#969696" fill-opacity="1.0" d="M11.4179999536743 35.013 L11.4179999536743 36.013 L39.667999 36.013 L39.667999 35.013 L11.417999 35.013 L11.4179999536743 35.013z" stroke="none"/><path fill="#969696" fill-opacity="1.0" d="M11.4179999536743 40.842 L11.4179999536743 41.842 L39.667999 41.842 L39.667999 40.842 L11.417999 40.842 L11.4179999536743 40.842z" stroke="none"/><path fill="#969696" fill-opacity="1.0" d="M11.4179999536743 43.756 L11.4179999536743 44.756 L39.667999 44.756 L39.667999 43.756 L11.417999 43.756 L11.4179999536743 43.756z" stroke="none"/><path fill="url(#id53)" d="M46.676998 14.144 L33.586998 14.144 Q32.586998 14.144 32.586998 13.144 L32.586998 0.0 L46.676998 14.144 L46.676998 14.144z" stroke-width="1.0" stroke-linejoin="round" stroke="#000000"/></g><g transform="translate(1321.6249999999995 131.0)"><clipPath id="id54"><path d="M0 0 L86.91666666666697 0 L86.91666666666697 20.0 L0 20.0z"/></clipPath><text font-size="12" clip-path="url(#id54)" text-decoration="none" fill="#000000" font-family="Arial,Arial" font-style="normal" font-weight="normal"><tspan x="2.0" xml:space="preserve" y="14.0" textLength="72.0">ERROR LOG</tspan></text></g></g></svg>